<?xml version="1.0" encoding="utf-8"?>
<!-- Generator: Adobe Illustrator 24.1.1, SVG Export Plug-In . SVG Version: 6.00 Build 0)  -->
<svg version="1.1" id="Capa_1" xmlns="http://www.w3.org/2000/svg" xmlns:xlink="http://www.w3.org/1999/xlink" x="0px" y="0px"
	 viewBox="0 0 100 100" style="enable-background:new 0 0 100 100;" xml:space="preserve">
<style type="text/css">
	.st0{fill:#00BDF2;}
	.st1{fill:#EC1858;}
</style>
<g>
	<g>
		<g>
			<path class="st0" d="M49.2,2.5c11.2,0.2,20,3.9,27,11.5c5.1,5.4,8.1,11.9,9.1,19.3c1.1,7.6-0.1,14.8-3.9,21.4
				c-3.3,5.7-6.7,11.3-10.1,16.9c-4.4,7.2-9,14.3-13.5,21.4c-1.4,2.1-3.2,3.7-5.7,4.2c-3.9,0.9-7.5-0.6-9.6-4
				c-7.5-12-15.1-24.1-22.5-36.2c-2.3-3.7-4-7.6-4.9-11.8c-0.7-3.4-0.8-6.9-0.5-10.4c0.4-4.8,1.7-9.3,4-13.4
				c5.4-9.8,13.6-16,24.6-18.3C45.4,2.7,47.7,2.7,49.2,2.5z M50,88.8c0.3-0.4,0.5-0.7,0.6-1c4-6.3,7.9-12.5,11.8-18.8
				c3.7-6,7.4-12,10.9-18c2-3.4,3.3-7,3.4-11c0.2-5.1-0.7-9.9-3.1-14.4c-3.2-5.9-7.9-10.1-14.1-12.5c-4.5-1.8-9.1-2.2-13.9-1.4
				c-7.7,1.2-13.6,5.2-18,11.6c-2.6,3.9-4,8.2-4.4,12.9c-0.3,4.2,0.1,8.2,2,12c1.3,2.6,2.6,5.2,4.1,7.7c5.8,9.4,11.7,18.7,17.6,28
				C47.9,85.4,48.9,87,50,88.8z"/>
			<g>
				<path class="st1" d="M64.7,38.2c0,8.1-6.6,14.8-14.7,14.7c-8.3,0-14.8-6.6-14.8-14.9c0-8.1,6.6-14.8,14.7-14.7
					C58.2,23.3,64.7,29.9,64.7,38.2z"/>
			</g>
		</g>
	</g>
</g>
</svg>
