<?xml version="1.0" encoding="utf-8"?>
<!-- Generator: Adobe Illustrator 23.0.6, SVG Export Plug-In . SVG Version: 6.00 Build 0)  -->
<svg version="1.1" id="Capa_1" xmlns="http://www.w3.org/2000/svg" xmlns:xlink="http://www.w3.org/1999/xlink" x="0px" y="0px"
	 viewBox="0 0 100 100" style="enable-background:new 0 0 100 100;" xml:space="preserve">
<style type="text/css">
	.st0{fill:#DC522A;}
	.st1{fill:#EC1858;}
	.st2{fill:#75B443;}
</style>
<g>
	<g>
		<path class="st0" d="M36.3-96.2c-6.3-1.9-8.4-6.3-8.3-12.4c0.2-9.1,0-18.2,0.1-27.2c0-7.5,4.1-11.5,11.5-11.5
			c16.2,0,32.4,0,48.6,0c7.3,0,11.4,4.1,11.4,11.4c0,9.6,0,19.1,0,28.7c0,7-4.1,11.2-11.1,11.2C77.9-96,67.3-96,56.8-96
			c-1.8,0-3.1,0.5-4.3,1.8c-3,3.2-6.1,6.2-9.1,9.3c-1.3,1.3-2.7,2.1-4.6,1.4c-1.9-0.8-2.6-2.3-2.5-4.3
			C36.3-90.6,36.3-93.3,36.3-96.2z M57-128.7c1.5,0.3,3-0.1,4.1-2.1c0.5-0.8,2.5-1.4,3.6-1.2c1,0.2,2.2,1.5,2.5,2.5
			c0.9,2.7-0.5,4.8-2.6,6.6c-1.5,1.2-3,2.3-4.1,3.8c-0.7,0.9-0.9,2.5-0.8,3.6c0,0.4,2,0.6,3,0.7c0.8,0.1,1.7,0.2,2.4,0
			c0.6-0.2,1.4-0.7,1.5-1.2c0.4-2.2,2-3.3,3.6-4.4c3.8-2.5,5.2-6.1,4.2-10.4c-0.8-3.7-4.1-6.5-8.3-6.9c-4.7-0.4-9.3-0.3-12.2,4.3
			C52.1-130,52.8-128.8,57-128.7z M63.1-111.6c-3.5,0-3.7,0.2-3.7,2.9c0,2.7,0.3,2.9,3.7,2.9c0.4,0,0.8,0,1.2,0
			c1.6,0.1,2.3-0.6,2.4-2.3C66.8-111.2,66.5-111.6,63.1-111.6z"/>
		<path class="st0" d="M58.4-88.9c0,1.1,0,2.3,0,3.4c0,3.9,0.9,4.8,4.7,4.8c11.5,0,22.9,0,34.4,0.1c1.2,0,2.7,0.7,3.6,1.5
			c2.1,1.8,3.9,4,6.4,5.8c0-2.4,0-4.7,0-7.3c1.9,0,3.5,0.1,5,0c2.1-0.1,3.4-1.2,3.4-3.4c0-10.1,0-20.3,0-30.4c0-2.3-1.1-3.4-3.5-3.4
			c-1.8-0.1-3.6,0-5.6,0c0-2.4,0-3.6,0-6.5c3.6,0,6.5,0,9.5,0.1c4.7,0.3,6.7,5.1,6.7,9.8c0.1,10.1,0.1,20.1,0,30.2
			c0,4.8-2.4,8.2-6.8,10.1c-0.6,0.3-1.2,1.2-1.3,1.9c-0.2,2.4-0.1,4.7-0.1,7.1c0,1.8-0.7,3.2-2.3,3.9c-1.7,0.8-3.2,0.2-4.5-1
			c-3.3-3.3-6.5-6.7-9.9-9.8c-0.9-0.8-2.4-1.5-3.6-1.5c-10.9-0.1-21.8,0-32.6-0.1c-5,0-9-3-10.1-7.7c-0.2-0.9,0.2-2.3,0.8-3
			c1.5-1.8,3.4-3.4,5.1-5C57.8-89.2,58.1-89,58.4-88.9z"/>
	</g>
</g>
<g>
	<g>
		<g>
			<path class="st1" d="M233.3-120.6c13.1,0,26.2,0,39.3,0c5,0,8.2,4.2,8.2,8.1c-0.1,19.2-0.1,38.3,0,57.5c0,4.3-3.3,8.3-8.4,8.3
				c-26.2-0.1-52.4,0-78.6,0c-4.5,0-8-3.4-8-7.9c0-19.4,0-38.7,0-58.1c0-4.5,3.4-7.9,8-7.9C207-120.7,220.2-120.6,233.3-120.6
				C233.3-120.6,233.3-120.6,233.3-120.6z M214.9-62.6c4.8,0,9.6,0,14.4,0c2.7,0,4-1.3,4-4c0-0.5,0-1,0-1.4c0.2-3.8-1.4-6.6-4.5-8.6
				c-2.7-1.7-5.6-2.4-8.8-1.4c-3.3,1-6.6,1-10,0.1c-0.7-0.2-1.3-0.5-2-0.5c-2.2-0.1-4.4,0.3-6.3,1.3c-2.6,1.4-4.6,3.5-5.1,6.5
				c-0.3,1.6-0.2,3.3-0.2,5c0,1.1,0.6,1.9,1.6,2.4c0.8,0.4,1.7,0.6,2.6,0.6C205.3-62.5,210.1-62.6,214.9-62.6z M214.8-83.7
				c5.9,0,10.6-4.7,10.6-10.7c0-5.7-4.8-10.4-10.6-10.4c-5.8,0-10.6,4.8-10.6,10.5C204.3-88.4,209-83.7,214.8-83.7z M257.1-99.6
				c-3.8,0-7.5,0-11.3,0c-1.6,0-2,0.4-2,2c0,0.4,0,0.8,0,1.2c0,1.9,0.3,2.2,2.2,2.2c7.3,0,14.7,0,22,0c0.2,0,0.5,0,0.7,0
				c1.1-0.1,1.5-0.5,1.6-1.6c0-0.6,0-1.2,0-1.8c0-1.5-0.5-1.9-2-1.9C264.6-99.6,260.9-99.6,257.1-99.6z M256.9-83.7
				c3.9,0,7.8,0,11.7,0c1.2,0,1.6-0.4,1.7-1.6c0-0.6,0-1.2,0-1.7c0-1.5-0.4-1.9-2-1.9c-7.3,0-14.7,0-22,0c-0.4,0-0.8,0-1.2,0
				c-0.8,0.1-1.2,0.5-1.3,1.3c0,0.7,0,1.5,0,2.2c0,1.4,0.3,1.7,1.8,1.8C249.4-83.7,253.2-83.7,256.9-83.7z M257-73.1
				c3.8,0,7.7,0,11.5,0c1.3,0,1.7-0.4,1.8-1.7c0-0.5,0-1,0-1.5c0-1.6-0.4-2-2-2c-5.8,0-11.5,0-17.3,0c-1.9,0-3.8,0-5.7,0
				c-1,0-1.5,0.4-1.5,1.5c0,0.7,0,1.4,0,2c0,1.4,0.4,1.8,1.8,1.8C249.4-73.1,253.2-73.1,257-73.1z"/>
		</g>
	</g>
</g>
<g>
	<g>
		<path class="st2" d="M46.3,73.5c0,0.8,0,1.6,0,2.4c-0.1,1.3-1.1,2.4-2.4,2.7c-1.9,0.5-3.8,0.8-5.7,0.9c-1.6,0.1-3.1,0-4.7-0.1
			c-1.1-0.1-2.2-0.2-3.3-0.5c-1-0.2-2.1-0.3-2.9-1.1c-0.6-0.6-1-1.3-1-2.2c0-1.3,0-2.6,0-3.9c0-0.3-0.1-0.4-0.3-0.5
			c-1-0.6-2.1-1.2-3.1-1.8c-0.1-0.1-0.3-0.1-0.4,0c-1,0.6-2,1.2-3.1,1.8c-1.3,0.8-2.9,0.8-4-0.2c-0.6-0.6-1.2-1.2-1.7-1.9
			c-1.2-1.3-2.2-2.7-3.1-4.3c-0.9-1.5-1.5-3-2.1-4.6c-0.3-0.8-0.5-1.6-0.8-2.3c-0.4-1.1-0.2-2.2,0.5-3.1c0.4-0.6,1-0.9,1.6-1.2
			c0.9-0.5,1.7-1,2.6-1.4c0.2-0.1,0.3-0.3,0.3-0.5c0-1.1,0-2.3,0-3.4c0-0.3-0.1-0.4-0.3-0.6c-1-0.6-2-1.1-3.1-1.7
			c-1.6-0.9-2.2-2.3-1.6-4.1c0.6-1.7,1.2-3.5,2-5.2c0.9-2.2,2.3-4.1,3.9-5.8c0.5-0.6,1-1.2,1.6-1.8c1-1.1,2.6-1.4,3.9-0.7
			c1.1,0.6,2.2,1.3,3.3,1.9c0.2,0.1,0.3,0.1,0.5,0c1-0.6,2.1-1.2,3.1-1.8c0.2-0.1,0.3-0.2,0.3-0.5c0-1.2,0-2.5,0-3.7
			c0-1.5,1-2.7,2.4-3.1c2-0.5,4.1-0.9,6.2-1c1.5-0.1,3.1,0,4.6,0.2c1.4,0.2,2.8,0.5,4.1,0.8c1.2,0.3,2.1,0.9,2.5,2.1
			c0.1,0.3,0.2,0.7,0.2,1c0,1.3,0,2.5,0,3.8c0,0.1,0.1,0.3,0.2,0.4c1.1,0.6,2.1,1.2,3.2,1.8c0.1,0.1,0.4,0,0.5,0c1-0.6,2-1.1,3-1.7
			c1.5-0.9,3.2-0.7,4.3,0.6c1.1,1.2,2.1,2.5,3.1,3.8c1.7,2.2,3,4.7,3.7,7.4c0.2,0.7,0.4,1.5,0.5,2.2c0.2,1.2-0.3,2.2-1.3,2.9
			c-1.1,0.7-2.2,1.4-3.3,2.1c-0.3,0.2-0.4,0.4-0.4,0.8c0.1,1.1,0,2.2,0,3.3c0,0.2,0,0.3,0.2,0.5c1.1,0.7,2.1,1.4,3.2,2
			c1,0.6,1.5,1.5,1.6,2.7c0,0.6-0.2,1.1-0.3,1.7c-0.6,2.2-1.5,4.3-2.7,6.3c-1,1.6-2,3.1-3.3,4.4c-0.5,0.6-1,1.2-1.6,1.7
			c-1.1,1-2.6,1.1-4,0.3c-1-0.6-2-1.2-3.1-1.8c-0.2-0.1-0.3-0.1-0.5,0c-1,0.6-2.1,1.2-3.1,1.8c-0.1,0.1-0.2,0.3-0.2,0.4
			C46.3,72.2,46.3,72.8,46.3,73.5C46.3,73.5,46.3,73.5,46.3,73.5z M40,69.8C40,69.8,40,69.8,40,69.8c0-0.9,0-1.8,0-2.7
			c0-0.2,0-0.4,0.3-0.4c0.2,0,0.3-0.1,0.5-0.2c1-0.4,2.1-0.7,3.1-1.2c1.9-0.9,3.6-2.2,5.1-3.7c0.2-0.2,0.4-0.2,0.6-0.1
			c1.5,0.9,3,1.8,4.5,2.6c0.2,0.1,0.3,0.1,0.5-0.1c1.3-1.7,2.4-3.5,3.2-5.4c0.3-0.7,0.3-0.7-0.3-1c-0.2-0.1-0.3-0.2-0.5-0.3
			c-1.3-0.7-2.5-1.5-3.8-2.2C53.1,55.1,53,55,53,54.9c0.1-0.9,0.3-1.7,0.5-2.6c0.1-0.9,0.3-1.8,0.2-2.7c-0.1-1.7-0.4-3.3-0.7-4.9
			c0-0.3,0-0.4,0.3-0.6c1.5-0.9,3-1.7,4.5-2.6c0.2-0.1,0.3-0.3,0.2-0.5c-0.2-0.4-0.3-0.8-0.5-1.2c-0.8-1.6-1.7-3.2-2.9-4.6
			c-0.1-0.2-0.2-0.2-0.4-0.1c-1.5,0.9-3,1.8-4.6,2.7c-0.2,0.1-0.4,0.2-0.6,0c-0.2-0.2-0.4-0.4-0.7-0.6c-1.2-1.1-2.5-2.1-4-2.9
			c-1.3-0.6-2.7-1.1-4-1.6c-0.3-0.1-0.4-0.2-0.4-0.5c0-1.8,0-3.5,0-5.3c0-0.2-0.1-0.3-0.3-0.3c-0.3,0-0.6,0-0.8-0.1
			c-2-0.3-3.9-0.2-5.8,0.1c-0.3,0-0.4,0.1-0.4,0.5c0,1.7,0,3.5,0,5.2c0,0.2-0.1,0.4-0.3,0.5c-0.5,0.2-1,0.4-1.5,0.5
			c-1.5,0.5-3,1.2-4.3,2.1c-1,0.8-2,1.6-3,2.4c-0.2,0.2-0.3,0.2-0.6,0.1c-1.5-0.9-3-1.8-4.6-2.7c-0.2-0.1-0.3-0.2-0.4,0
			c-0.2,0.3-0.4,0.6-0.6,0.8c-1.1,1.6-2,3.2-2.8,5c-0.1,0.3-0.1,0.4,0.2,0.5c1.4,0.8,2.7,1.6,4.1,2.4c0.8,0.5,0.8,0.5,0.6,1.4
			c-0.3,1.4-0.5,2.8-0.5,4.3c0,1.7,0.3,3.5,0.6,5.2c0.1,0.3,0,0.4-0.2,0.5c-1.5,0.9-3,1.7-4.5,2.6c-0.3,0.2-0.4,0.3-0.2,0.6
			c0.6,1.1,1.1,2.3,1.7,3.4c0.5,0.8,1.1,1.6,1.7,2.4c0.1,0.1,0.2,0.2,0.4,0.1c1.5-0.9,3.1-1.8,4.6-2.7c0.2-0.1,0.3-0.1,0.5,0.1
			c0.9,0.8,1.9,1.6,2.8,2.3c1.8,1.3,3.8,2.1,5.9,2.8c0.2,0.1,0.3,0.2,0.3,0.4c0,1.7,0,3.5,0,5.2c0,0.3,0.1,0.4,0.4,0.5
			c1.4,0.2,2.8,0.3,4.2,0.2c0.8,0,1.6-0.2,2.4-0.2c0.3,0,0.4-0.2,0.4-0.5C40,71.5,40,70.6,40,69.8z"/>
		<path class="st2" d="M92.5,29.6c-0.1,0.9-0.1,1.6-0.2,2.4c-0.1,0.9-0.8,1.4-1.6,1.4c-0.6,0-1.1,0-1.7,0c-0.3,0-0.4,0.1-0.5,0.4
			c-0.4,1.1-1,2.1-1.8,3c-0.1,0.2-0.2,0.3,0,0.5c0.3,0.5,0.6,1,0.9,1.5c0.5,0.8,0.4,1.6-0.4,2.2c-1.2,1-2.5,1.7-4,2.3
			c-0.8,0.3-1.6,0-2.1-0.8c-0.3-0.5-0.6-1-0.9-1.5c-0.1-0.2-0.2-0.3-0.5-0.2c-0.9,0.1-1.7,0.1-2.6,0.1c-0.3,0-0.6-0.1-0.9-0.1
			c-0.2-0.1-0.4,0-0.5,0.2c-0.3,0.5-0.6,1-0.9,1.5c-0.5,0.9-1.2,1.1-2.1,0.7C71.4,42.7,70.2,42,69,41c-0.9-0.7-1-1.4-0.5-2.4
			c0.3-0.5,0.6-0.9,0.8-1.4c0.1-0.1,0.1-0.3,0-0.4c-0.8-1-1.4-2-1.8-3.2c0-0.1-0.3-0.2-0.4-0.2c-0.6,0-1.2,0-1.8,0
			c-0.9,0-1.6-0.6-1.6-1.6c0-0.8-0.1-1.7-0.1-2.5c0-0.7,0.1-1.3,0.2-2c0.1-0.9,0.8-1.4,1.8-1.4c0.5,0,1,0,1.6,0
			c0.3,0,0.4-0.1,0.5-0.3c0.4-1.1,1-2.1,1.7-3c0.2-0.2,0.2-0.3,0-0.6c-0.4-0.6-0.7-1.2-1-1.8c-0.3-0.6-0.1-1.3,0.4-1.7
			c0.8-0.6,1.7-1.2,2.5-1.7c0.4-0.3,1-0.5,1.4-0.7c0.9-0.4,1.7-0.1,2.2,0.7c0.3,0.5,0.6,1,0.8,1.4c0.1,0.2,0.2,0.3,0.5,0.2
			c1.2-0.2,2.3-0.2,3.5,0c0.2,0,0.4,0,0.5-0.2c0.3-0.5,0.6-1,0.8-1.5c0.5-0.9,1.3-1.1,2.2-0.7c1.3,0.5,2.5,1.2,3.6,2
			c0.5,0.4,1,0.9,0.9,1.6c0,0.2-0.1,0.4-0.2,0.6c-0.3,0.5-0.6,1.1-0.9,1.6c-0.1,0.2-0.1,0.3,0,0.5c0.7,0.9,1.3,1.9,1.7,3
			c0.1,0.3,0.2,0.4,0.6,0.4c0.7,0,1.3,0,2,0.1c0.7,0.1,1.2,0.5,1.3,1.3C92.4,28.1,92.4,28.9,92.5,29.6z M73.7,29.6
			c0,2.4,1.9,4.2,4.1,4.3c2.5,0.1,4.5-1.9,4.4-4.3c0-2.4-1.8-4.2-4.3-4.2C75.4,25.4,73.7,27.6,73.7,29.6z"/>
		<path class="st2" d="M92.5,70.3c-0.1,0.8-0.1,1.6-0.2,2.4c-0.1,0.7-0.7,1.3-1.5,1.3c-0.6,0-1.3,0-1.9,0c-0.2,0-0.3,0.1-0.4,0.2
			c-0.4,1.1-1,2.2-1.8,3.2c-0.1,0.1-0.1,0.3,0,0.5c0.2,0.5,0.5,0.9,0.8,1.4c0.5,0.9,0.4,1.7-0.4,2.3c-1.2,1-2.5,1.7-3.9,2.2
			c-0.9,0.3-1.6,0.1-2.1-0.7c-0.3-0.5-0.6-1-0.9-1.5c-0.1-0.2-0.2-0.3-0.5-0.3c-1.2,0.2-2.4,0.2-3.5,0c-0.1,0-0.3,0.1-0.4,0.2
			c-0.3,0.5-0.6,1-0.8,1.5c-0.5,0.9-1.3,1.2-2.2,0.8c-1.4-0.6-2.7-1.3-3.9-2.3c-0.7-0.6-0.9-1.3-0.4-2.2c0.3-0.5,0.6-1,0.9-1.6
			c0.1-0.2,0.1-0.3,0-0.5c-0.8-0.9-1.4-1.9-1.8-3c-0.1-0.2-0.2-0.3-0.5-0.3c-0.6,0-1.3,0-1.9,0c-0.8,0-1.4-0.6-1.5-1.4
			c-0.1-1-0.1-1.9-0.1-2.9c0-0.6,0.1-1.2,0.2-1.9c0.1-0.8,0.8-1.3,1.6-1.3c0.6,0,1.2,0,1.8,0c0.2,0,0.4-0.1,0.5-0.3
			c0.4-1.2,1.1-2.2,1.8-3.1c0.1-0.2,0.1-0.3,0-0.5c-0.4-0.6-0.8-1.3-1.1-1.9c-0.2-0.5,0-1.3,0.5-1.7c1.3-1,2.6-1.8,4.2-2.4
			c0.7-0.3,1.5-0.1,1.9,0.6c0.4,0.6,0.7,1.1,1,1.7c0.1,0.2,0.3,0.3,0.5,0.2c1.1-0.2,2.3-0.2,3.4,0c0.2,0,0.4,0,0.5-0.2
			c0.3-0.6,0.7-1.2,1-1.7c0.4-0.7,1.1-0.8,1.9-0.6c1.5,0.5,2.8,1.3,4,2.3c0.7,0.5,0.9,1.4,0.4,2.2c-0.3,0.5-0.6,1-0.9,1.5
			c-0.1,0.1-0.1,0.4,0,0.5c0.8,1,1.4,2,1.8,3.1c0,0.1,0.2,0.2,0.4,0.2c0.6,0,1.2,0,1.9,0c0.8,0,1.4,0.5,1.5,1.3
			C92.4,68.7,92.4,69.5,92.5,70.3z M78,74.5c2.2,0.1,4.3-1.8,4.3-4.2c0-2.4-2-4.2-4.2-4.3c-2.4,0-4.3,2-4.3,4.2
			C73.7,72.5,75.6,74.7,78,74.5z"/>
		<path class="st2" d="M36.3,61.5c-5.8,0-11.1-4.3-11.6-10.5C24,44,29,38.8,34.8,38.1c3.5-0.4,6.6,0.5,9.3,2.9
			c2.3,2.1,3.6,4.7,3.9,7.8C48.4,55.3,43.6,61.3,36.3,61.5z M30.9,49.7c0,2.9,2.3,5.4,5.3,5.4c3,0,5.4-2.3,5.4-5.4
			c0-2.9-2.3-5.3-5.3-5.3C33.3,44.4,31,46.7,30.9,49.7z"/>
	</g>
</g>
</svg>
