<?xml version="1.0" encoding="utf-8"?>
<!-- Generator: Adobe Illustrator 22.1.0, SVG Export Plug-In . SVG Version: 6.00 Build 0)  -->
<svg version="1.1" id="Capa_1" xmlns="http://www.w3.org/2000/svg" xmlns:xlink="http://www.w3.org/1999/xlink" x="0px" y="0px"
	 viewBox="0 0 868.6 430.3" style="enable-background:new 0 0 868.6 430.3;" xml:space="preserve">
<style type="text/css">
	.st0{fill:#DC522A;}
	.st1{fill:#112E4C;}
	.st2{fill:#FFFFFF;}
</style>
<g>
	<g>
		<rect x="438.3" class="st0" width="430.3" height="430.3"/>
		<rect class="st1" width="430.3" height="430.3"/>
		<path class="st2" d="M237.9,72.7c-4.6-0.5-9.1-0.8-13.8-1c-1.4,0-2.8-0.1-4.2-0.1h-5.3c-2.9,0-5.7,0-8.5,0.1
			c-3.2,0.1-6.3,0.3-9.4,0.5c-15.9,1.2-31.7,3.8-47.5,7.9c-0.5,0.2-1.1,0.3-1.7,0.5c0.4,0.7,1,0.7,1.7,1c0.1,0.1,0.2,0.1,0.3,0.2
			c0.8,0.4,1.1,0.9,2.1,1.1c1.3,0.1,2.5,0.3,3.7,0c2.5-0.6,2.6-0.9,4.5,0.6c0.9,0.7,1,0.8,1.2,1.9c0.2,1.1,0.1,1.5,1,2.2
			c0.8,0.7,1.5,0.8,2-0.2c1-2.2,3.6,0.6,3.6,1.7c-0.1,2,0.4,0.8,1,1.6c0.4,0.3,0.3,3,2.1,3.6c0.7,0.2,1.3,0,1.5,0.9
			c0.1,0.3,0,0.7-0.3,1.1c-0.2,0.6-0.5,1.2-0.8,1.7c-0.9,2.1-0.8,3.9,0.2,6c0.3,0.5,0.6,1.1,0.9,1.7c0.8,2.2,0.9,2.6,2.4,3.5
			c0.9,0.5,1.9,0.5,2.9,0.6c0.8,0,0.9,0.1,1.6-0.4c0.7-0.5,1.1-0.5,1.6-0.1c1.4,0.9,1.1,0.1,1.7-0.9c1-1.5,1.5-0.2,1.5-2.7
			c0-0.5,0.4-1,1.2-1.3c1.7,0.1,1.9-0.8,3.6-0.6c0.7,0.1,2,0.1,1.4,1.7c-1,1-1.1,0.9-1.2,2.3c0,1.2-0.2,1.6-0.8,2.4
			c-1.1,1.2-0.4,0.8-0.8,2.1c-0.1,0.6-0.5,0.9-0.7,1.5c-0.2,0.7,0.2,1.2,1.4,1c0.8-0.2,1.5-0.2,2.2-0.1c0.9,0,1.6,0.1,2.4,0.1
			c1.2-0.1,2.4,0,3.2,0.9c1,1.1,0.8,1.4,0.4,3.4c-0.2,0.5,0.2,0.9,0.1,1.5c-0.1,0.9-0.7,1.9-0.7,2.6c0,0.5,0.1,1,0.2,1.4
			c0.5,0.7,0.8,1.2,1.2,1.6c0.5,0.6,1,1.1,1.9,1.7c2.6,1.6,2.9-0.1,5-0.5c1.1-0.1,1.9-0.1,2.6,0.2c0.7,0.3,1.3,0.8,2,1.5
			c0.7,0.7,1.2,1,1.6-0.4c0.1-0.6,0.4-1.1,0.8-1.2c0.7-0.1,0.4-0.2,0.7-0.9c0.1-0.1,0.1-0.2,0.2-0.3v-0.1v-0.2
			c0.3-1.4,1.9-2.2,3.3-2.3h0.3c0.8,0,1.9-0.6,2.3-1.2c0.5-0.6,2.2-1.7,1.3,0.4c-0.3,0.5-0.5,0.5-0.4,1.1c0,0.2,0.1,0.3,0.1,0.5
			c0.3,0.8-0.3,1-0.5,1.6c-0.1,0.5,0.4,0.4,0.6,0.5c0.2,0.2,0.2,0.7,0.5,1c0.5,0.3,0.9-0.1,1.1-0.7v-0.1v-0.4
			c-0.1-0.3-0.2-0.6-0.2-0.9c-0.1-0.6-0.1-0.9,0.2-1.2c0.1-0.1,0.3-0.2,0.5-0.3c1.6-0.9,2.6-1.4,3.7-0.6c0.2,0.1,0.3,0.3,0.5,0.4
			c1.3,1.2,0.7,1.3,2.5,1.4c1.4,0,1.8-0.3,3,0.4c0.8,0.4,3,1.1,3.6,0c0.6-1.2,2.3-1.2,2.7-0.2c0.4,0.7,0.8,0.8,1.5,0.9
			c0.1,0,0.1,0,0.1,0.1c0.7,0.1,0.7,0.1,1.2,0.6c0.7,0.8-0.1,0.6,0,1.5c0.1,0.7,0,0.4,1,0.4c1.7,0,3.8,0.7,4.3,2.5
			c0.3,0.9,1.2,0.4,1.9,1.1c1.1,1.2,0.6,1.2,2.4,1.5c0.4,0.1,0.7,0.1,1.1,0c1.5-0.4,2.1-0.4,2.9,0.1c0.8,0.5,1,1.2,1.9,1
			c1.5-0.3,1.8,1,2.8,1.8c1.2,1,1.9,0.9,1.9,3c0,1.4,0.1,1,0.9,2c1.1,1.4,1.4,1.6-0.2,3.1c-1.2,1-1.2,1.7,0.8,0.6
			c0.7-0.4,1.2,0.2,2.4,0.6c0.6,0.5,0.6,1,0.1,1.5c-0.1,1.6-0.3,1.4,1,0.4c1.3-1.2,2.4-1.5,4.2-0.2c0.6,0.5,1.2,0.9,1.8,1.4
			c1.6,1.4,3.2,2.1,5.4,2.1c1.5,0,2.2,0.6,3.5,0.4c1.7-0.2,3.1,0.6,4.1,2.2c0.5,0.7,1.2,1.4,2.1,1.8c2,0.9,2.8-0.2,3.7,2.3
			c1.6,4.3-1.6,7.7-4.4,10.7c-1.1,1.3-0.8,2.1-1.5,2.9c-1,1-2.7,0.2-2.4,2c0.2,0.7-0.5,1.2-0.6,2c0,0.4-0.1,0.7,0,1
			c0,1,0.4,1.9-0.4,2.6c-0.1,0.9-0.2,1.8-0.4,2.7c-0.9,1.9-1.8,3.2-2.3,4.3c-0.6,0.7-0.8,1-1.5,1.5c-1,0.7-0.4,1.7-1,2.4
			c-0.2,0.3-0.5,0.4-0.9,0.7c-1.4,0.9-1.3,1.2-3.1,1.2c-3.4,0-8,2.2-10,5.3c-0.8,1.2-0.8,1.9-0.9,3c-0.2,1.6-0.9,1.3-1.7,2.3
			c-1.5,1.7-1.4,3.7-3.1,3c-0.5-0.1-0.6,0.4-1.3,1.2c-0.5,0.5-1,0.9-1.2,1.8c-0.1,0.7-0.2,0.9-1.1,1.7c-0.6,0.6-1.1,1.1-1.7,1.7
			c-1.1,2.4-3,2.1-5.3,1.8c-0.6-0.1-1.5-0.6-2.2-0.8c-1.5-0.6-1.3,0.4-0.2,1c0.4,0.2,0.5,0.3,0.6,0.5c0.2,1.1-0.9,1.2,0.5,2.3
			c0.3,0.8,0,1.5-0.8,2.3c-1,1.5-2.5,2.1-4.2,2.2c-0.9,0.1-1.9,0-2.9,0c-2-0.1-1.5-0.5-1.7,1.2c-0.1,0.4-0.2,0.7-0.6,1.2
			c0,1.6-1.1,1.9-2.2,1.5c-2.3-0.9-1.4-1-2,0.5c-0.2,0.5-0.2,0.8-0.1,1.1c0,0.2,0.1,0.8,0.3,0.8c0.2,0,0.3,0,0.4,0.1
			c0.8,0,0-0.5,1.1-0.6c0.4,0,0.4,0,0.3,0.4c-0.2,0.8-0.3,0.6-1.1,0.6c-0.8,0-0.9-0.1-0.9,0.8c0,1-0.6,0.8-0.9,1.6
			c-0.1,0.3-0.2,0.6-0.3,1c-0.3,0.9-1,0.8-1.9,0.9c-0.6,0.3-1.1,0.6-1.4,1c-0.4,0.6-0.4,1.3,0,1.9c0.1,0.1,0.3,0.3,0.5,0.4
			c0.2,0.2,0.3,0.5,0.6,0.6c0.9,0.2,0.9-0.3,0.9,0.7c0,1.1-0.5,1-1.4,1.6c-0.2,0.2-0.4,0.3-0.6,0.4c-0.5,0.3-0.6,0.4-0.9,1.2
			c-0.1,0.7-0.5,1.2-1,1.4c-1.7,0.6-1.7,0.9-1.3,2.5c0.3,1.3-0.2,1.1-1,1.3c-0.3,0.1-0.7,0.2-1.1,0.5c-0.4,0.4-0.7,0.9-0.9,1.5
			c-0.9,0.8,0.2,0.1-2.1,0.6c-0.9,0.2-0.9-0.4-0.9-1.4c-0.1-0.5-0.2-0.7-0.3-0.9c-0.1-0.1-0.2-0.2-0.2-0.4c-0.5-1.3,0.1-0.9-1.1-1.9
			c-0.9-0.6,0.1-1.4-0.3-2c-0.6-1-0.4-0.5-0.5-1.6c-0.1-0.3-0.2-0.6-0.3-1c-0.2-0.4-0.2-0.8,0.4-1.1c0.8-0.4,0.7-0.2,1-1
			c0.6-2,0.3-0.6-0.8-1.5c-0.3-0.2-0.1-0.8,0.3-1.3c0.7-0.9,0.9-0.9,1.5-1.1c0.1,0,0.2,0,0.4-0.1c0.5-0.2,0.3-0.7,0.6-1.8
			c-0.1-1.2,0.4-1.9,0.8-2.7c0.4-0.6,0.4-1.3,0.1-1.9c-0.6-1.2-1.9,0-1.7-1.9c0.2-1.6,0.5-1.5,0.9-2.7c0.2-0.6,0.1-1.2,0-2
			c-0.5-2.1-0.3-2,0.7-3.9c0.3-0.7,0.7-1.3,1-2c0.2-0.7,0.2-1.2,0.4-2c0.7-0.5,0.7-0.8,0.7-1.8c0-1.2,0.5-1.2,0.5-2.3
			s-0.2-0.8-0.5-1.6c-0.1-0.4,0-0.8,0.1-1.1c0.5-1.2,1-0.8,0.6-2.3c-0.3-0.8,0.3-1.7,0.7-2.5c0.1-0.2,0.2-0.4,0.2-0.5
			c0.4-1.4,0.7-2.5,0.9-4c0.2-1.1,0.3-2,0.1-2.8c-0.1-0.7-0.1-1.2,0-1.6c0.3-1,0.7-0.8,0.5-1.9c-0.1-0.7-0.2-1.7,0-2.1
			c0.5-1.2-0.1-2.7-0.1-4.3c0.1-1.4-0.5-2-1.6-2.9c-0.2-0.1-0.4-0.3-0.7-0.5c-1.3-0.9-2.6-2.1-4-2.7c-0.2-0.1-0.4-0.2-0.6-0.2
			c-1.4-0.4-1.6,0.1-3-1.6c-0.4-0.5-0.8-1-1.3-1.5c-0.5-0.9,0.6-1-0.1-2.1c-0.3-0.4-1-0.9-1.2-1.3c-1.3-1.8-2.2-3.7-3-5.5
			c-1.3-2.7-2.5-5-4.6-6.7c-0.8-0.1-1.1-0.5-0.8-1.3c0-0.7-0.3-1.2-0.5-1.6c-0.8-1.5,1.4-2.2,2.4-2.6c0.7-0.5,0.7-1.1,0-1.6
			c-0.3-0.1-0.6-0.2-0.9-0.2c-1.5-0.5-0.9-2.4-0.2-3.3c0.6-0.6,0.9-1.4,1.1-2.2c0.2-1.3,0.3-1.4,1.1-1.7c1.3-0.3,1.1-0.4,1.5-1.6
			c0-1.1,0.1-1,0.9-1.3c0.1,0,0.2-0.1,0.3-0.1c2.2-2,1.9-3,1.7-5.7c0-1.4-0.3-1.8-1-3.1c-0.4-0.7-0.8-0.8-1-1.1
			c-0.1-0.1-0.1-0.2-0.1-0.4c-0.1-1.2,0.2-1-0.7-2.2c-0.8-0.6-1.8-0.5-2.4,0.5c-0.1,0.2-0.1,0.6-0.3,0.8c-0.9,0.6-0.7,0.1-0.4,1.6
			c0.1,0.3,0.1,0.5-0.1,0.6c-1.2,0.8-1.1-0.7-1.6-0.9c-0.8-0.3-0.5,0.3-1.5-0.7c-0.4-0.4-0.6-0.4-1.4-0.4h-1
			c-0.3-0.1-0.5-0.3-0.8-0.9c-0.5-0.6,0.1-1.1-1-1.3c-0.2,0-0.4,0-0.6-0.1c-1.1-0.8-0.2-0.8-1.4-0.5c-0.6,0.1-1.2-0.4-1.3-1.3
			c0.3-2.1-0.1-1.8-1.9-3.3c-0.7-0.7-1-1.4-1.3-2.1c-0.4-1-0.8-0.5-1.7-0.5c-0.6,0.1-1.9-0.2-2.7-0.8c-1.6-1.1-2-0.8-3.1-1
			c-1.4-0.2-2.4-1.8-3-2.7c-0.8-1.2-2.1-1.9-3.6-1.6c-1.2,0.3-1.4,1.4-2.9,1.2c-0.9-0.2-1.5-1.2-3.6-1.5c-1.6-0.3-2.5-1.1-3.8-1.7
			c-1.6-0.6-1.7-1.7-3-2c-2.9-0.7-1.5-0.4-2.8-1.8c-0.3-0.2-0.6-0.4-1-0.6c-0.8-0.5-2-1.6-1.2-2.5c0.8-1,0.9-1.7,0.6-2.5
			c-0.4-0.7-0.4-1.3-0.3-1.8c0.1-0.7-1.2-1.9-1.7-2.5c-0.8-1.1-1.6-2.1-2.3-3.2c-2.9-1.3,0.3-1.6-1.2-3.1c-0.8,0-1-0.4-1.1-0.9
			c-0.3-1.2,0.1-1.2-1.1-2.2c-0.3-0.2-0.6-0.5-0.8-1.2c-0.3-0.7-0.5-1.4-0.7-2.2c0-0.6-0.1-1.1-0.1-1.7c-0.1-1.6,0.2-1.4-1.3-2
			c-0.4-0.1-0.6-0.2-0.9-0.2c-0.1,0.1-0.2,0.1-0.3,0.1c-0.3,0.2-0.4,0.7-0.4,1.2c0.1,1.3-0.1,1.6,0.3,2.5c0.3,0.3,0.5,0.9,0.7,1.2
			c0.8,1,0.9,0.9,0.9,2.1c0,1.1-0.1,1.2,0.5,2.2c1.6,2.1,1.1,2.4,1.6,4.1c-0.1,1,0,1.5-0.5,1.6c-0.7,0.2-1.2-0.1-1.8-0.4
			c-0.6-0.6-0.2-1,0.2-1.6c0.8-1.3-1-2.4-1.8-3c-1.2-1.1-1.9-1.6-0.7-2.9c0.9-0.9,0.3-1.6-0.2-2.4c-1.3-1.2-1.5-1.3-1.4-2.2
			c0.1-1,0.1-1.3-0.1-1.6c-8,2.4-16.1,5.1-24.1,8.2v138.8c10.3,4,20.5,7.4,30.9,10.1c15.8,4.2,31.6,6.8,47.5,7.9
			c3.2,0.2,6.3,0.4,9.4,0.5c2.9,0.1,5.7,0.1,8.5,0.1h2.5c0.5-0.1,1-0.2,1.5-0.3c2.1,0.3,0.4-1.5,1.3-2.1c0.1,0,0.3-0.1,0.5-0.1
			c0.9-0.2,0.8-0.1,1.2,0.6c0.5,0.9,0.9,1.3,1.6,1.8h0.9c4.7-0.2,9.2-0.5,13.8-1c24.4-2.3,48.8-8.1,72.9-17.6V90.3
			C286.7,80.9,262.3,75,237.9,72.7 M197.4,101.5c-0.3,0.1-0.5,0.2-0.7,0.3c-0.2,0.2-0.3,0.5-0.7,0.7c-0.9,0.7-1.3-0.3-0.1-1.1
			c0.3-0.2,0.6-0.4,0.8-0.4C198.1,100.5,199,101.3,197.4,101.5 M211.5,106.8c-0.9,0.1-1,0-1.8,0.1c-1.4,0.2-1.7,0.1-1.4-1
			c0.2-1-1.8-0.5-2.2-1c-0.1-0.1-0.1-0.2,0-0.4v-0.1c-0.6-1.1-0.2-0.7-2-0.7c-0.4,0-0.9-0.1-1.2-0.5c-0.7-0.7-1.1-1.1-2.2-0.9
			c-1,0.1-1.8-1.7-1-1.9c1.7-0.2,1,0.6,2.5,0.6c0.9,0,1.2,0.2,1.9,0.8c0.4,0.3,0.8,0.5,1.6,0.5c0.2,0,0.3,0,0.4,0.1
			c0.4,0.1,0.8,0.3,1.4,0.6c0.3,0.2,0.6,0.4,0.8,0.6c0.6,0.6,1.1,1,1.8,1.1c1.1,0.2,1,0,1.8,0.7
			C212.6,106.2,213.5,106.6,211.5,106.8 M215.6,110.1c-0.2,0-0.6,0-1-0.1c-0.5,0-0.9-0.1-0.9-0.4c0-0.8,0.2-0.4,0.8-0.4h0.1
			c0.4,0,0.4-0.1,0.6,0.4c0.1,0.2,0.3,0.2,0.7,0.2C216.4,109.9,216.1,110.2,215.6,110.1 M221.7,109.4c-1.3,0-1.5-0.2-1.8,0.4
			c-0.1,0.2-0.2,0.4-0.4,0.7c-0.1,0.3-0.2,0.2-0.8,0c-0.9-0.2-1.5-0.8-1.5-1.2c-0.1-0.3-0.1-0.5-0.2-0.8c-1.4-3-0.5-0.8,2.5-1.3
			c0.1-0.1,0.3-0.1,0.4-0.1c0.9-0.2,1.1-0.3,1.9,0.6l0.7,0.7C224.8,109.2,222.2,109.8,221.7,109.4 M224.1,109.5
			c-0.2,0-0.4-0.2-0.4-0.4c0-0.3,0.2-0.5,0.4-0.5c0.3,0,0.4,0.2,0.4,0.5C224.5,109.4,224.4,109.5,224.1,109.5 M214.6,226.6v-0.1
			c0.2-0.1,0.2-0.2,0.3-0.6c0-0.5,0.3-0.2,0.2,0.2c-0.1,0.6-0.1,1.8-0.5,1.9c-0.8,0-0.5-0.1-0.4-0.7
			C214.2,226.7,214.1,226.8,214.6,226.6 M149.8,98.6c-0.3,0.2-0.5,0.2-0.6,0.1c0,0-0.1-0.1-0.1-0.2c-0.2-1-1-0.4-0.8-1.2
			c0.2-0.7,0.6-0.9,0.9-0.7c0.3,0.2,0.5,0.5,0.7,0.8C150.2,97.9,150.4,98.3,149.8,98.6 M240,235.3c-0.5,1-0.8,0.7-1.9,0.5h-0.3
			c-0.6,0.1-0.6,0.8-1.6,0.4c-0.6-0.5-0.9-0.9-0.7-1.4c0.2-0.5,0.3-0.7,0.7-0.6c0.6,0.2,1.1,0.1,1.6,0c0.3-0.1,0.6-0.2,0.8-0.3
			C240.3,233.4,240.4,234.4,240,235.3"/>
		<polygon class="st2" points="141.1,284.7 141.1,291.1 126.8,291.1 126.8,299.7 139.9,299.7 139.9,306.1 126.8,306.1 126.8,319.7 
			118.3,319.7 118.3,284.7 		"/>
		<polygon class="st2" points="148.4,284.7 156.8,284.7 156.8,313.1 169,313.1 169,319.7 148.4,319.7 		"/>
		<path class="st2" d="M185.9,284.7h9l12.6,35h-8.9l-2.4-7.5h-11.8l-2.4,7.5h-8.8L185.9,284.7z M186.2,306.1h8l-1.3-4.2
			c-0.4-1.4-0.9-2.8-1.4-4.4c-0.5-1.6-0.9-3-1.2-4.3h-0.1c-0.4,1.3-0.8,2.7-1.3,4.2c-0.5,1.5-1,3-1.4,4.4L186.2,306.1z"/>
		<path class="st2" d="M228.7,313.9c1.7,0,3.1-0.1,4.2-0.4c1.2-0.3,2.1-0.7,2.9-1.2l1.7,6.1c-0.7,0.4-1.9,0.9-3.6,1.3
			c-1.6,0.4-3.7,0.7-6.1,0.7c-2.7,0-5.3-0.4-7.6-1.3c-2.3-0.9-4.3-2.1-5.9-3.6c-1.6-1.6-2.9-3.5-3.8-5.7c-0.9-2.2-1.4-4.7-1.4-7.5
			c0-2.7,0.4-5.2,1.3-7.4c0.9-2.2,2.1-4.1,3.7-5.7c1.6-1.6,3.6-2.8,5.9-3.7c2.3-0.9,4.9-1.3,7.8-1.3c2.4,0,4.4,0.2,6,0.7
			c1.5,0.5,2.8,0.9,3.6,1.4l-1.9,6.2c-0.8-0.5-1.9-0.9-3-1.3c-1.2-0.4-2.5-0.6-3.9-0.6c-1.5,0-2.9,0.2-4.2,0.6
			c-1.3,0.4-2.4,1.1-3.4,2c-1,0.9-1.7,2.1-2.3,3.6c-0.6,1.5-0.8,3.2-0.8,5.4c0,2,0.3,3.7,0.8,5.2c0.5,1.5,1.3,2.7,2.2,3.7
			c1,1,2.1,1.7,3.4,2.2C225.7,313.6,227.1,313.9,228.7,313.9"/>
		<path class="st2" d="M256.7,284c2.4,0,4.5,0.2,6.3,0.7c1.8,0.5,3.3,1.1,4.6,1.8l-1.9,6.2c-1.4-0.7-2.9-1.3-4.4-1.7
			c-1.5-0.4-2.9-0.6-4.2-0.6c-1.7,0-3,0.3-3.9,0.9c-0.9,0.6-1.3,1.5-1.3,2.5c0,1.2,0.4,2,1.3,2.6c0.9,0.5,2.2,1.1,3.9,1.7l3.3,1.1
			c1.3,0.4,2.5,1,3.6,1.6c1.1,0.7,2.1,1.4,2.9,2.2c0.8,0.9,1.4,1.8,1.9,2.9c0.5,1.1,0.7,2.2,0.7,3.5c0,1.5-0.3,2.9-0.8,4.2
			c-0.6,1.3-1.4,2.5-2.5,3.5c-1.1,1-2.5,1.8-4.3,2.4c-1.7,0.6-3.7,0.9-6.1,0.9c-2.2,0-4.3-0.2-6.3-0.7c-2-0.5-3.8-1.1-5.5-2l1.9-6.2
			c1.6,0.8,3.2,1.4,4.7,1.8c1.5,0.4,3.1,0.7,4.8,0.7c2,0,3.4-0.3,4.3-1c0.9-0.7,1.3-1.5,1.3-2.6c0-0.4-0.1-0.7-0.2-1.1
			c-0.1-0.4-0.4-0.8-0.9-1.1c-0.4-0.4-1-0.7-1.8-1.1c-0.8-0.4-1.7-0.7-2.9-1.1l-2.7-0.9c-1.3-0.5-2.5-1-3.6-1.6
			c-1.1-0.6-2.1-1.3-2.9-2.1c-0.8-0.8-1.4-1.8-1.9-2.8c-0.4-1.1-0.7-2.3-0.7-3.8c0-1.5,0.3-2.9,0.9-4.2c0.6-1.3,1.4-2.4,2.6-3.4
			c1.1-1,2.5-1.7,4.2-2.2C252.6,284.3,254.5,284,256.7,284"/>
		<path class="st2" d="M293.6,284c2.5,0,4.9,0.4,7,1.3c2.1,0.8,4,2,5.6,3.6c1.6,1.6,2.8,3.5,3.6,5.7c0.9,2.3,1.3,4.8,1.3,7.7
			c0,2.8-0.5,5.3-1.4,7.5c-0.9,2.2-2.1,4.1-3.7,5.7c-1.6,1.6-3.4,2.8-5.6,3.6c-2.2,0.8-4.5,1.2-7,1.2c-2.5,0-4.8-0.4-7-1.2
			c-2.1-0.8-4-2-5.6-3.5c-1.5-1.5-2.8-3.4-3.6-5.7s-1.3-4.8-1.3-7.6c0-2.8,0.4-5.3,1.3-7.5c0.9-2.2,2.1-4.2,3.7-5.8
			c1.6-1.6,3.5-2.8,5.6-3.7C288.7,284.4,291.1,284,293.6,284 M284.8,302.2c0,2,0.2,3.7,0.7,5.2c0.5,1.5,1.1,2.7,1.9,3.7
			c0.8,1,1.7,1.7,2.8,2.2c1.1,0.5,2.2,0.7,3.4,0.7c1.2,0,2.3-0.2,3.4-0.7c1.1-0.5,2-1.2,2.7-2.2c0.8-1,1.4-2.2,1.8-3.7
			c0.4-1.5,0.7-3.2,0.7-5.2c0-2-0.2-3.8-0.7-5.3c-0.5-1.5-1.1-2.7-1.9-3.7c-0.8-1-1.7-1.7-2.8-2.2c-1.1-0.5-2.2-0.7-3.4-0.7
			c-1.2,0-2.3,0.3-3.4,0.8c-1.1,0.5-2,1.2-2.8,2.2c-0.8,1-1.4,2.2-1.8,3.7C285,298.6,284.8,300.3,284.8,302.2"/>
		<path class="st2" d="M125.6,339.4h2l7.4,19h-2.3l-2.1-5.4h-8.2l-2.1,5.4h-2.3L125.6,339.4z M123,351.2h6.9l-1.5-4.1
			c-0.3-0.7-0.6-1.5-0.9-2.4c-0.3-0.9-0.6-1.9-1-2.9h-0.1c-0.2,0.5-0.3,1-0.5,1.5c-0.2,0.5-0.3,0.9-0.5,1.3
			c-0.2,0.4-0.3,0.8-0.5,1.3c-0.1,0.4-0.3,0.8-0.5,1.3L123,351.2z"/>
		<path class="st2" d="M143.8,339.4h5.9c1,0,1.8,0.1,2.6,0.4c0.8,0.3,1.4,0.7,1.9,1.1c0.5,0.5,0.9,1.1,1.1,1.7
			c0.3,0.7,0.4,1.4,0.4,2.2c0,0.7-0.1,1.4-0.3,2c-0.2,0.6-0.5,1.1-0.9,1.5c-0.4,0.4-0.8,0.8-1.3,1.1c-0.5,0.3-1,0.5-1.5,0.7l5.2,8.2
			h-2.5l-4.7-7.8h-3.8v7.8h-2V339.4z M145.8,348.9h2.9c0.7,0,1.3-0.1,1.9-0.2c0.6-0.2,1.1-0.4,1.5-0.7c0.4-0.3,0.8-0.7,1-1.2
			c0.2-0.5,0.4-1.1,0.4-1.8c0-1.3-0.4-2.3-1.1-2.9c-0.8-0.6-1.9-0.9-3.3-0.9h-3.1V348.9z"/>
		<path class="st2" d="M173.9,339.4c1.1,0,2.1,0.1,2.9,0.2c0.9,0.2,1.6,0.4,2.4,0.8l-0.5,1.7c-0.7-0.3-1.4-0.6-2.2-0.8
			c-0.7-0.2-1.5-0.3-2.3-0.3c-1,0-1.9,0.1-2.8,0.4c-0.9,0.3-1.6,0.7-2.3,1.3c-0.7,0.6-1.2,1.4-1.6,2.4c-0.4,1-0.6,2.2-0.6,3.6
			c0,1.2,0.2,2.3,0.5,3.3c0.3,1,0.8,1.8,1.5,2.4c0.6,0.7,1.4,1.2,2.3,1.5c0.9,0.3,1.8,0.5,2.9,0.5c0.8,0,1.4-0.1,2-0.1
			c0.6-0.1,1.1-0.2,1.5-0.4v-6h-3.8v-1.7h5.9v9c-0.7,0.3-1.6,0.6-2.4,0.7c-0.9,0.2-2,0.3-3.2,0.3c-1.3,0-2.5-0.2-3.6-0.6
			c-1.1-0.4-2.1-1-3-1.8c-0.8-0.8-1.5-1.8-2-3c-0.5-1.2-0.7-2.5-0.7-4.1c0-1.6,0.2-2.9,0.7-4.1c0.5-1.2,1.1-2.2,1.9-3
			c0.8-0.8,1.8-1.4,2.9-1.8C171.4,339.6,172.6,339.4,173.9,339.4"/>
		<polygon class="st2" points="189.9,339.4 201,339.4 201,341.2 192,341.2 192,347.7 200.3,347.7 200.3,349.5 192,349.5 192,356.6 
			201.1,356.6 201.1,358.4 189.9,358.4 		"/>
		<path class="st2" d="M210.8,339.4h2l8.5,12.3c0.4,0.6,0.8,1.1,1.1,1.7c0.4,0.6,0.7,1.1,1.1,1.7h0.1c0-0.7-0.1-1.5-0.1-2.2
			c0-0.7,0-1.5,0-2.2v-11.2h2.1v19h-2l-8.3-11.9c-0.4-0.6-0.8-1.2-1.3-1.9c-0.4-0.7-0.8-1.4-1.2-2.1h-0.1c0,0.9,0.1,1.8,0.1,2.7
			c0,0.9,0,1.8,0,2.7v10.6h-2.1V339.4z"/>
		<polygon class="st2" points="248.8,339.4 248.8,341.2 242.6,341.2 242.6,358.4 240.4,358.4 240.4,341.2 234.3,341.2 234.3,339.4 
					"/>
		<rect x="257.6" y="339.4" class="st2" width="2.2" height="19"/>
		<path class="st2" d="M270.6,339.4h2l8.5,12.3c0.4,0.6,0.8,1.1,1.1,1.7c0.4,0.6,0.7,1.1,1.1,1.7h0.1c0-0.7-0.1-1.5-0.1-2.2
			c0-0.7,0-1.5,0-2.2v-11.2h2.1v19h-2l-8.3-11.9c-0.4-0.6-0.8-1.2-1.3-1.9c-0.4-0.7-0.8-1.4-1.2-2.1h-0.1c0,0.9,0.1,1.8,0.1,2.7
			c0,0.9,0,1.8,0,2.7v10.6h-2.1V339.4z"/>
		<path class="st2" d="M301.6,339.4h2l7.4,19h-2.3l-2.1-5.4h-8.1l-2.1,5.4h-2.3L301.6,339.4z M299,351.2h6.9l-1.5-4.1
			c-0.3-0.7-0.6-1.5-0.9-2.4c-0.3-0.9-0.6-1.9-1-2.9h-0.1c-0.2,0.5-0.3,1-0.5,1.5c-0.2,0.5-0.3,0.9-0.5,1.3
			c-0.2,0.4-0.3,0.8-0.5,1.3c-0.2,0.4-0.3,0.8-0.5,1.3L299,351.2z"/>
	</g>
	<g>
		<path class="st2" d="M523.9,123.6H515v11.6h-3.3v-26.4h13.7v2.8H515v9h8.9V123.6z"/>
		<path class="st2" d="M538.6,135.2c-0.2-0.4-0.3-1.1-0.4-2.1c-1.1,1.7-2.6,2.5-4.3,2.5c-1.8,0-3.2-0.5-4.2-1.5
			c-1-1-1.5-2.4-1.5-4.2c0-2,0.7-3.6,2-4.7c1.4-1.2,3.2-1.8,5.6-1.8h2.4v-2.1c0-1.2-0.3-2-0.8-2.5c-0.5-0.5-1.3-0.7-2.4-0.7
			c-1,0-1.8,0.3-2.4,0.9s-0.9,1.3-0.9,2.2h-3.2c0-1,0.3-2,0.9-2.9s1.4-1.6,2.4-2.1s2.1-0.8,3.3-0.8c2,0,3.5,0.5,4.6,1.5
			c1,1,1.6,2.4,1.6,4.4v9.9c0,1.5,0.2,2.8,0.6,3.9v0.3H538.6z M534.3,132.7c0.8,0,1.5-0.2,2.2-0.7c0.7-0.4,1.2-1,1.6-1.6v-4.7h-1.8
			c-1.5,0-2.7,0.4-3.6,1c-0.9,0.7-1.3,1.6-1.3,2.8c0,1.1,0.2,1.9,0.7,2.4C532.5,132.4,533.2,132.7,534.3,132.7z"/>
		<path class="st2" d="M553.1,132.9c1.1,0,1.9-0.3,2.6-1c0.6-0.7,1-1.6,1-2.8h3c-0.1,1.9-0.7,3.4-2,4.7c-1.3,1.2-2.8,1.9-4.6,1.9
			c-2.4,0-4.3-0.8-5.5-2.3c-1.3-1.5-1.9-3.8-1.9-6.8v-2.2c0-3,0.6-5.2,1.9-6.7c1.3-1.5,3.1-2.3,5.5-2.3c2,0,3.6,0.6,4.8,1.9
			c1.2,1.3,1.8,3,1.9,5.2h-3c-0.1-1.4-0.4-2.5-1-3.3c-0.6-0.7-1.5-1.1-2.6-1.1c-1.4,0-2.5,0.5-3.2,1.4s-1,2.5-1.1,4.6v2.5
			c0,2.3,0.3,3.9,1,4.9S551.6,132.9,553.1,132.9z"/>
		<path class="st2" d="M573.4,133.5c-1.1,1.4-2.6,2.1-4.7,2.1c-1.8,0-3.1-0.6-4-1.8c-0.9-1.2-1.4-3-1.4-5.3v-12.8h3.2v12.5
			c0,3.1,0.9,4.6,2.8,4.6c1.9,0,3.3-0.9,4-2.6v-14.5h3.2v19.6h-3L573.4,133.5z"/>
		<path class="st2" d="M584.8,135.2h-3.2v-27.8h3.2V135.2z"/>
		<path class="st2" d="M594,110.9v4.7h3v2.6h-3v12.2c0,0.8,0.1,1.4,0.4,1.8c0.3,0.4,0.7,0.6,1.3,0.6c0.4,0,0.9-0.1,1.3-0.2l0,2.7
			c-0.7,0.2-1.5,0.4-2.2,0.4c-1.3,0-2.2-0.5-2.9-1.4s-1-2.2-1-3.8v-12.2h-3v-2.6h3v-4.7H594z"/>
		<path class="st2" d="M610.8,135.2c-0.2-0.4-0.3-1.1-0.4-2.1c-1.1,1.7-2.6,2.5-4.3,2.5c-1.8,0-3.2-0.5-4.2-1.5s-1.5-2.4-1.5-4.2
			c0-2,0.7-3.6,2-4.7c1.4-1.2,3.2-1.8,5.6-1.8h2.4v-2.1c0-1.2-0.3-2-0.8-2.5s-1.3-0.7-2.4-0.7c-1,0-1.8,0.3-2.4,0.9
			s-0.9,1.3-0.9,2.2h-3.2c0-1,0.3-2,0.9-2.9c0.6-0.9,1.4-1.6,2.4-2.1s2.1-0.8,3.3-0.8c2,0,3.5,0.5,4.6,1.5c1,1,1.6,2.4,1.6,4.4v9.9
			c0,1.5,0.2,2.8,0.6,3.9v0.3H610.8z M606.6,132.7c0.8,0,1.5-0.2,2.2-0.7c0.7-0.4,1.2-1,1.6-1.6v-4.7h-1.8c-1.5,0-2.7,0.4-3.6,1
			c-0.9,0.7-1.3,1.6-1.3,2.8c0,1.1,0.2,1.9,0.7,2.4C604.7,132.4,605.5,132.7,606.6,132.7z"/>
		<path class="st2" d="M617.8,124.6c0-3,0.6-5.3,1.7-6.9c1.1-1.6,2.7-2.4,4.9-2.4c1.9,0,3.3,0.8,4.4,2.3v-10.1h3.2v27.8H629
			l-0.2-2.1c-1,1.6-2.6,2.5-4.5,2.5c-2,0-3.6-0.8-4.8-2.4c-1.2-1.6-1.7-3.8-1.8-6.7V124.6z M621,126.4c0,2.2,0.3,3.8,1,4.8
			c0.7,1,1.7,1.5,3.2,1.5c1.6,0,2.8-0.8,3.6-2.4v-9.9c-0.8-1.6-2-2.4-3.5-2.4c-1.5,0-2.5,0.5-3.2,1.5c-0.7,1-1,2.6-1,4.7V126.4z"/>
	</g>
	<g>
		<path class="st2" d="M515.1,170.1h10.3v2.8h-13.7v-26.4h3.3V170.1z"/>
		<path class="st2" d="M539,173c-0.2-0.4-0.3-1.1-0.4-2.1c-1.1,1.7-2.6,2.5-4.3,2.5c-1.8,0-3.2-0.5-4.2-1.5s-1.5-2.4-1.5-4.2
			c0-2,0.7-3.6,2-4.7c1.4-1.2,3.2-1.8,5.6-1.8h2.4V159c0-1.2-0.3-2-0.8-2.5c-0.5-0.5-1.3-0.7-2.4-0.7c-1,0-1.8,0.3-2.4,0.9
			s-0.9,1.3-0.9,2.2h-3.2c0-1,0.3-2,0.9-2.9c0.6-0.9,1.4-1.6,2.4-2.1c1-0.5,2.1-0.8,3.3-0.8c2,0,3.5,0.5,4.6,1.5
			c1,1,1.6,2.4,1.6,4.4v9.9c0,1.5,0.2,2.8,0.6,3.9v0.3H539z M534.7,170.4c0.8,0,1.5-0.2,2.2-0.7c0.7-0.4,1.2-1,1.6-1.6v-4.7h-1.8
			c-1.5,0-2.7,0.4-3.6,1c-0.9,0.7-1.3,1.6-1.3,2.8c0,1.1,0.2,1.9,0.7,2.4C532.9,170.2,533.6,170.4,534.7,170.4z"/>
		<path class="st2" d="M550.8,148.7v4.7h3v2.6h-3v12.2c0,0.8,0.1,1.4,0.4,1.8c0.3,0.4,0.7,0.6,1.3,0.6c0.4,0,0.9-0.1,1.3-0.2l0,2.7
			c-0.7,0.2-1.5,0.4-2.2,0.4c-1.3,0-2.2-0.5-2.9-1.4c-0.7-0.9-1-2.2-1-3.8V156h-3v-2.6h3v-4.7H550.8z"/>
		<path class="st2" d="M561.3,148.2c0,0.5-0.2,1-0.5,1.4s-0.8,0.5-1.4,0.5c-0.6,0-1.1-0.2-1.4-0.5s-0.5-0.8-0.5-1.4s0.2-1,0.5-1.4
			s0.8-0.6,1.4-0.6s1.1,0.2,1.4,0.6C561.2,147.2,561.3,147.7,561.3,148.2z M561.1,173h-3.2v-19.6h3.2V173z"/>
		<path class="st2" d="M569.1,153.4l0.1,2.1c1.2-1.7,2.8-2.5,4.8-2.5c3.5,0,5.2,2.3,5.3,6.9v13H576v-12.9c0-1.5-0.3-2.6-0.8-3.3
			c-0.5-0.6-1.3-1-2.3-1c-0.8,0-1.5,0.3-2.1,0.8c-0.6,0.5-1.1,1.2-1.5,2.1V173h-3.2v-19.6H569.1z"/>
		<path class="st2" d="M583.4,162.3c0-2.8,0.7-5.1,2.1-6.8c1.4-1.7,3.2-2.5,5.5-2.5c2.3,0,4.1,0.8,5.5,2.4c1.4,1.6,2.1,3.8,2.1,6.6
			v2.1c0,2.8-0.7,5.1-2.1,6.7s-3.2,2.5-5.5,2.5c-2.3,0-4.1-0.8-5.5-2.4c-1.4-1.6-2.1-3.8-2.1-6.5V162.3z M586.6,164.1
			c0,2,0.4,3.6,1.2,4.8s1.9,1.7,3.2,1.7c2.8,0,4.3-2,4.4-6.1v-2.2c0-2-0.4-3.6-1.2-4.8c-0.8-1.2-1.9-1.7-3.2-1.7
			c-1.3,0-2.4,0.6-3.2,1.7c-0.8,1.2-1.2,2.7-1.2,4.7V164.1z"/>
		<path class="st2" d="M612.7,173c-0.2-0.4-0.3-1.1-0.4-2.1c-1.1,1.7-2.6,2.5-4.3,2.5c-1.8,0-3.2-0.5-4.2-1.5c-1-1-1.5-2.4-1.5-4.2
			c0-2,0.7-3.6,2-4.7c1.4-1.2,3.2-1.8,5.6-1.8h2.4V159c0-1.2-0.3-2-0.8-2.5s-1.3-0.7-2.4-0.7c-1,0-1.8,0.3-2.4,0.9s-0.9,1.3-0.9,2.2
			h-3.2c0-1,0.3-2,0.9-2.9c0.6-0.9,1.4-1.6,2.4-2.1c1-0.5,2.1-0.8,3.3-0.8c2,0,3.5,0.5,4.6,1.5c1,1,1.6,2.4,1.6,4.4v9.9
			c0,1.5,0.2,2.8,0.6,3.9v0.3H612.7z M608.4,170.4c0.8,0,1.5-0.2,2.2-0.7c0.7-0.4,1.2-1,1.6-1.6v-4.7h-1.8c-1.5,0-2.7,0.4-3.6,1
			c-0.9,0.7-1.3,1.6-1.3,2.8c0,1.1,0.2,1.9,0.7,2.4C606.6,170.2,607.4,170.4,608.4,170.4z"/>
		<path class="st2" d="M623.4,153.4l0.1,1.8c1.2-1.4,2.8-2.2,4.7-2.2c2.2,0,3.7,0.9,4.6,2.8c1.2-1.9,2.9-2.8,5.1-2.8
			c3.6,0,5.5,2.3,5.5,6.8V173h-3.2v-12.9c0-1.4-0.3-2.5-0.8-3.2c-0.5-0.7-1.4-1-2.6-1c-1,0-1.8,0.4-2.4,1.1s-1,1.7-1,2.9V173h-3.2
			v-13c0-2.7-1.1-4.1-3.3-4.1c-1.6,0-2.8,0.8-3.4,2.4V173h-3.2v-19.6H623.4z"/>
		<path class="st2" d="M655.3,173.3c-2.4,0-4.3-0.7-5.6-2.2c-1.3-1.5-2-3.6-2-6.4v-2.4c0-2.9,0.6-5.2,1.9-6.9
			c1.3-1.7,3.1-2.5,5.3-2.5c2.3,0,4,0.7,5.1,2.2c1.1,1.5,1.7,3.7,1.7,6.8v2.1h-10.9v0.5c0,2.1,0.4,3.6,1.2,4.6s1.9,1.4,3.4,1.4
			c0.9,0,1.8-0.2,2.5-0.5s1.4-0.9,2-1.7l1.7,2C660.3,172.4,658.1,173.3,655.3,173.3z M654.9,155.8c-1.3,0-2.3,0.5-3,1.4
			c-0.6,0.9-1,2.3-1.1,4.2h7.7V161c-0.1-1.9-0.4-3.2-1-4C657,156.2,656.1,155.8,654.9,155.8z"/>
		<path class="st2" d="M673.7,156.4c-0.4-0.1-0.9-0.1-1.4-0.1c-1.6,0-2.8,0.9-3.4,2.7v14h-3.2v-19.6h3.1l0.1,2
			c0.9-1.6,2.1-2.4,3.6-2.4c0.5,0,0.9,0.1,1.3,0.3L673.7,156.4z"/>
		<path class="st2" d="M680.6,148.2c0,0.5-0.2,1-0.5,1.4s-0.8,0.5-1.4,0.5c-0.6,0-1.1-0.2-1.4-0.5s-0.5-0.8-0.5-1.4s0.2-1,0.5-1.4
			s0.8-0.6,1.4-0.6s1.1,0.2,1.4,0.6C680.5,147.2,680.6,147.7,680.6,148.2z M680.4,173h-3.2v-19.6h3.2V173z"/>
		<path class="st2" d="M692.2,170.6c1.1,0,1.9-0.3,2.6-1c0.6-0.7,1-1.6,1-2.8h3c-0.1,1.9-0.7,3.4-2,4.7c-1.3,1.2-2.8,1.9-4.6,1.9
			c-2.4,0-4.3-0.8-5.5-2.3c-1.3-1.5-1.9-3.8-1.9-6.8v-2.2c0-3,0.6-5.2,1.9-6.7c1.3-1.5,3.1-2.3,5.5-2.3c2,0,3.6,0.6,4.8,1.9
			c1.2,1.3,1.8,3,1.9,5.2h-3c-0.1-1.4-0.4-2.5-1-3.3c-0.6-0.7-1.5-1.1-2.6-1.1c-1.4,0-2.5,0.5-3.2,1.4c-0.7,0.9-1,2.5-1.1,4.6v2.5
			c0,2.3,0.3,3.9,1,4.9S690.8,170.6,692.2,170.6z"/>
		<path class="st2" d="M712.6,173c-0.2-0.4-0.3-1.1-0.4-2.1c-1.1,1.7-2.6,2.5-4.3,2.5c-1.8,0-3.2-0.5-4.2-1.5c-1-1-1.5-2.4-1.5-4.2
			c0-2,0.7-3.6,2-4.7c1.4-1.2,3.2-1.8,5.6-1.8h2.4V159c0-1.2-0.3-2-0.8-2.5c-0.5-0.5-1.3-0.7-2.4-0.7c-1,0-1.8,0.3-2.4,0.9
			c-0.6,0.6-0.9,1.3-0.9,2.2h-3.2c0-1,0.3-2,0.9-2.9s1.4-1.6,2.4-2.1c1-0.5,2.1-0.8,3.3-0.8c2,0,3.5,0.5,4.6,1.5
			c1,1,1.6,2.4,1.6,4.4v9.9c0,1.5,0.2,2.8,0.6,3.9v0.3H712.6z M708.4,170.4c0.8,0,1.5-0.2,2.2-0.7c0.7-0.4,1.2-1,1.6-1.6v-4.7h-1.8
			c-1.5,0-2.7,0.4-3.6,1c-0.9,0.7-1.3,1.6-1.3,2.8c0,1.1,0.2,1.9,0.7,2.4C706.5,170.2,707.3,170.4,708.4,170.4z"/>
		<path class="st2" d="M723.3,153.4l0.1,2.1c1.2-1.7,2.8-2.5,4.8-2.5c3.5,0,5.2,2.3,5.3,6.9v13h-3.2v-12.9c0-1.5-0.3-2.6-0.8-3.3
			c-0.5-0.6-1.3-1-2.3-1c-0.8,0-1.5,0.3-2.1,0.8c-0.6,0.5-1.1,1.2-1.5,2.1V173h-3.2v-19.6H723.3z"/>
		<path class="st2" d="M748.3,173c-0.2-0.4-0.3-1.1-0.4-2.1c-1.1,1.7-2.6,2.5-4.3,2.5c-1.8,0-3.2-0.5-4.2-1.5c-1-1-1.5-2.4-1.5-4.2
			c0-2,0.7-3.6,2-4.7c1.4-1.2,3.2-1.8,5.6-1.8h2.4V159c0-1.2-0.3-2-0.8-2.5s-1.3-0.7-2.4-0.7c-1,0-1.8,0.3-2.4,0.9s-0.9,1.3-0.9,2.2
			h-3.2c0-1,0.3-2,0.9-2.9c0.6-0.9,1.4-1.6,2.4-2.1c1-0.5,2.1-0.8,3.3-0.8c2,0,3.5,0.5,4.6,1.5c1,1,1.6,2.4,1.6,4.4v9.9
			c0,1.5,0.2,2.8,0.6,3.9v0.3H748.3z M744.1,170.4c0.8,0,1.5-0.2,2.2-0.7c0.7-0.4,1.2-1,1.6-1.6v-4.7H746c-1.5,0-2.7,0.4-3.6,1
			c-0.9,0.7-1.3,1.6-1.3,2.8c0,1.1,0.2,1.9,0.7,2.4C742.2,170.2,743,170.4,744.1,170.4z"/>
		<path class="st2" d="M763.8,162.3c0-3,0.6-5.3,1.7-6.9c1.1-1.6,2.7-2.4,4.9-2.4c1.9,0,3.3,0.8,4.4,2.3v-10.1h3.2V173H775l-0.2-2.1
			c-1,1.6-2.6,2.5-4.5,2.5c-2,0-3.6-0.8-4.8-2.4c-1.2-1.6-1.7-3.8-1.8-6.7V162.3z M767,164.1c0,2.2,0.3,3.8,1,4.8
			c0.7,1,1.7,1.5,3.2,1.5c1.6,0,2.8-0.8,3.6-2.4v-9.9c-0.8-1.6-2-2.4-3.5-2.4c-1.5,0-2.5,0.5-3.2,1.5c-0.7,1-1,2.6-1,4.7V164.1z"/>
		<path class="st2" d="M789.9,173.3c-2.4,0-4.3-0.7-5.6-2.2c-1.3-1.5-2-3.6-2-6.4v-2.4c0-2.9,0.6-5.2,1.9-6.9
			c1.3-1.7,3.1-2.5,5.3-2.5c2.3,0,4,0.7,5.1,2.2c1.1,1.5,1.7,3.7,1.7,6.8v2.1h-10.9v0.5c0,2.1,0.4,3.6,1.2,4.6s1.9,1.4,3.4,1.4
			c0.9,0,1.8-0.2,2.5-0.5s1.4-0.9,2-1.7l1.7,2C794.9,172.4,792.7,173.3,789.9,173.3z M789.5,155.8c-1.3,0-2.3,0.5-3,1.4
			c-0.6,0.9-1,2.3-1.1,4.2h7.7V161c-0.1-1.9-0.4-3.2-1-4C791.6,156.2,790.7,155.8,789.5,155.8z"/>
	</g>
	<g>
		<path class="st2" d="M528.3,202.3c-0.1,2.8-0.9,5-2.4,6.5c-1.4,1.5-3.5,2.3-6.1,2.3c-2.6,0-4.7-1-6.3-3s-2.3-4.7-2.3-8.2v-4.8
			c0-3.4,0.8-6.1,2.4-8.1c1.6-2,3.8-3,6.5-3c2.5,0,4.5,0.8,5.9,2.3c1.4,1.5,2.2,3.7,2.3,6.5h-3.3c-0.1-2.1-0.6-3.7-1.4-4.6
			s-1.9-1.4-3.5-1.4c-1.8,0-3.2,0.7-4.1,2.1s-1.4,3.5-1.4,6.2v4.8c0,2.7,0.5,4.7,1.3,6.1c0.9,1.4,2.2,2.1,3.9,2.1
			c1.7,0,3-0.4,3.7-1.3c0.8-0.9,1.2-2.4,1.4-4.6H528.3z"/>
		<path class="st2" d="M536,185.9c0,0.5-0.2,1-0.5,1.4c-0.3,0.4-0.8,0.5-1.4,0.5c-0.6,0-1.1-0.2-1.4-0.5c-0.3-0.4-0.5-0.8-0.5-1.4
			s0.2-1,0.5-1.4c0.3-0.4,0.8-0.6,1.4-0.6c0.6,0,1.1,0.2,1.4,0.6C535.9,185,536,185.4,536,185.9z M535.8,210.7h-3.2v-19.6h3.2V210.7
			z"/>
		<path class="st2" d="M547.8,211.1c-2.4,0-4.3-0.7-5.6-2.2c-1.3-1.5-2-3.6-2-6.4v-2.4c0-2.9,0.6-5.2,1.9-6.9
			c1.3-1.7,3.1-2.5,5.3-2.5c2.3,0,4,0.7,5.1,2.2c1.1,1.5,1.7,3.7,1.7,6.8v2.1h-10.9v0.5c0,2.1,0.4,3.6,1.2,4.6
			c0.8,1,1.9,1.4,3.4,1.4c0.9,0,1.8-0.2,2.5-0.5s1.4-0.9,2-1.7l1.7,2C552.8,210.1,550.6,211.1,547.8,211.1z M547.4,193.5
			c-1.3,0-2.3,0.5-3,1.4s-1,2.3-1.1,4.2h7.7v-0.4c-0.1-1.9-0.4-3.2-1-4C549.5,193.9,548.6,193.5,547.4,193.5z"/>
		<path class="st2" d="M561.2,191.1l0.1,2.1c1.2-1.7,2.8-2.5,4.8-2.5c3.5,0,5.2,2.3,5.3,6.9v13h-3.2v-12.9c0-1.5-0.3-2.6-0.8-3.3
			c-0.5-0.6-1.3-1-2.3-1c-0.8,0-1.5,0.3-2.1,0.8c-0.6,0.5-1.1,1.2-1.5,2.1v14.2h-3.2v-19.6H561.2z"/>
		<path class="st2" d="M582.9,208.4c1.1,0,1.9-0.3,2.6-1c0.6-0.7,1-1.6,1-2.8h3c-0.1,1.9-0.7,3.4-2,4.7c-1.3,1.2-2.8,1.9-4.6,1.9
			c-2.4,0-4.3-0.8-5.5-2.3c-1.3-1.5-1.9-3.8-1.9-6.8v-2.2c0-3,0.6-5.2,1.9-6.7c1.3-1.5,3.1-2.3,5.5-2.3c2,0,3.6,0.6,4.8,1.9
			c1.2,1.3,1.8,3,1.9,5.2h-3c-0.1-1.4-0.4-2.5-1-3.3c-0.6-0.7-1.5-1.1-2.6-1.1c-1.4,0-2.5,0.5-3.2,1.4s-1,2.5-1.1,4.6v2.5
			c0,2.3,0.3,3.9,1,4.9C580.3,207.9,581.4,208.4,582.9,208.4z"/>
		<path class="st2" d="M596.9,185.9c0,0.5-0.2,1-0.5,1.4c-0.3,0.4-0.8,0.5-1.4,0.5c-0.6,0-1.1-0.2-1.4-0.5c-0.3-0.4-0.5-0.8-0.5-1.4
			s0.2-1,0.5-1.4c0.3-0.4,0.8-0.6,1.4-0.6s1.1,0.2,1.4,0.6C596.8,185,596.9,185.4,596.9,185.9z M596.7,210.7h-3.2v-19.6h3.2V210.7z"
			/>
		<path class="st2" d="M611.8,210.7c-0.2-0.4-0.3-1.1-0.4-2.1c-1.1,1.7-2.6,2.5-4.3,2.5c-1.8,0-3.2-0.5-4.2-1.5
			c-1-1-1.5-2.4-1.5-4.2c0-2,0.7-3.6,2-4.7c1.4-1.2,3.2-1.8,5.6-1.8h2.4v-2.1c0-1.2-0.3-2-0.8-2.5s-1.3-0.7-2.4-0.7
			c-1,0-1.8,0.3-2.4,0.9s-0.9,1.3-0.9,2.2h-3.2c0-1,0.3-2,0.9-2.9c0.6-0.9,1.4-1.6,2.4-2.1c1-0.5,2.1-0.8,3.3-0.8
			c2,0,3.5,0.5,4.6,1.5c1,1,1.6,2.4,1.6,4.4v9.9c0,1.5,0.2,2.8,0.6,3.9v0.3H611.8z M607.5,208.2c0.8,0,1.5-0.2,2.2-0.7
			c0.7-0.4,1.2-1,1.6-1.6v-4.7h-1.8c-1.5,0-2.7,0.4-3.6,1c-0.9,0.7-1.3,1.6-1.3,2.8c0,1.1,0.2,1.9,0.7,2.4
			C605.7,207.9,606.4,208.2,607.5,208.2z"/>
		<path class="st2" d="M629,205.7c0-0.7-0.3-1.3-0.8-1.8c-0.5-0.5-1.5-1.1-3-1.7c-1.7-0.7-2.9-1.3-3.6-1.8s-1.2-1.1-1.6-1.7
			c-0.4-0.6-0.5-1.4-0.5-2.3c0-1.6,0.6-2.9,1.7-4c1.2-1.1,2.7-1.6,4.5-1.6c1.9,0,3.4,0.6,4.6,1.7c1.2,1.1,1.7,2.5,1.7,4.3h-3.2
			c0-0.9-0.3-1.6-0.9-2.3c-0.6-0.6-1.3-0.9-2.3-0.9c-0.9,0-1.7,0.2-2.2,0.7c-0.5,0.5-0.8,1.1-0.8,2c0,0.7,0.2,1.2,0.6,1.6
			c0.4,0.4,1.3,0.9,2.8,1.6c2.4,0.9,4,1.8,4.9,2.7c0.9,0.9,1.3,2,1.3,3.4c0,1.7-0.6,3.1-1.8,4.1c-1.2,1-2.7,1.5-4.7,1.5
			c-2,0-3.7-0.6-5-1.8c-1.3-1.2-1.9-2.7-1.9-4.5h3.2c0,1.1,0.4,1.9,1,2.6s1.5,0.9,2.6,0.9c1.1,0,1.9-0.2,2.4-0.7
			C628.7,207.2,629,206.5,629,205.7z"/>
		<path class="st2" d="M656.8,204.1c0-1.3-0.4-2.3-1.1-3s-2-1.4-3.9-2c-1.9-0.7-3.3-1.4-4.3-2.1c-1-0.7-1.7-1.6-2.2-2.5
			c-0.5-0.9-0.7-2-0.7-3.2c0-2.1,0.7-3.8,2.1-5.2s3.2-2,5.5-2c1.5,0,2.9,0.3,4.1,1c1.2,0.7,2.1,1.6,2.8,2.9c0.7,1.2,1,2.6,1,4.1
			h-3.3c0-1.6-0.4-2.9-1.2-3.8c-0.8-0.9-1.9-1.3-3.4-1.3c-1.3,0-2.4,0.4-3.1,1.1c-0.7,0.8-1.1,1.8-1.1,3.2c0,1.1,0.4,2,1.2,2.8
			c0.8,0.7,2,1.4,3.7,2c2.6,0.9,4.5,1.9,5.6,3.2c1.1,1.3,1.7,2.9,1.7,4.9c0,2.1-0.7,3.8-2.1,5.1s-3.3,1.9-5.7,1.9
			c-1.5,0-2.9-0.3-4.2-1c-1.3-0.7-2.3-1.6-3.1-2.8s-1.1-2.6-1.1-4.2h3.3c0,1.6,0.5,2.9,1.4,3.8c0.9,0.9,2.2,1.4,3.7,1.4
			c1.5,0,2.6-0.4,3.3-1.1C656.4,206.4,656.8,205.4,656.8,204.1z"/>
		<path class="st2" d="M663.4,200c0-2.8,0.7-5.1,2.1-6.8c1.4-1.7,3.2-2.5,5.5-2.5c2.3,0,4.1,0.8,5.5,2.4c1.4,1.6,2.1,3.8,2.1,6.6
			v2.1c0,2.8-0.7,5.1-2.1,6.7s-3.2,2.5-5.5,2.5c-2.3,0-4.1-0.8-5.5-2.4s-2.1-3.8-2.1-6.5V200z M666.6,201.9c0,2,0.4,3.6,1.2,4.8
			c0.8,1.2,1.9,1.7,3.2,1.7c2.8,0,4.3-2,4.4-6.1V200c0-2-0.4-3.6-1.2-4.8c-0.8-1.2-1.9-1.7-3.2-1.7c-1.3,0-2.4,0.6-3.2,1.7
			c-0.8,1.2-1.2,2.7-1.2,4.7V201.9z"/>
		<path class="st2" d="M689.5,208.4c1.1,0,1.9-0.3,2.6-1c0.6-0.7,1-1.6,1-2.8h3c-0.1,1.9-0.7,3.4-2,4.7c-1.3,1.2-2.8,1.9-4.6,1.9
			c-2.4,0-4.3-0.8-5.5-2.3c-1.3-1.5-1.9-3.8-1.9-6.8v-2.2c0-3,0.6-5.2,1.9-6.7c1.3-1.5,3.1-2.3,5.5-2.3c2,0,3.6,0.6,4.8,1.9
			c1.2,1.3,1.8,3,1.9,5.2h-3c-0.1-1.4-0.4-2.5-1-3.3c-0.6-0.7-1.5-1.1-2.6-1.1c-1.4,0-2.5,0.5-3.2,1.4c-0.7,0.9-1,2.5-1.1,4.6v2.5
			c0,2.3,0.3,3.9,1,4.9S688,208.4,689.5,208.4z"/>
		<path class="st2" d="M703.5,185.9c0,0.5-0.2,1-0.5,1.4s-0.8,0.5-1.4,0.5c-0.6,0-1.1-0.2-1.4-0.5s-0.5-0.8-0.5-1.4s0.2-1,0.5-1.4
			s0.8-0.6,1.4-0.6c0.6,0,1.1,0.2,1.4,0.6C703.3,185,703.5,185.4,703.5,185.9z M703.2,210.7H700v-19.6h3.2V210.7z"/>
		<path class="st2" d="M718.3,210.7c-0.2-0.4-0.3-1.1-0.4-2.1c-1.1,1.7-2.6,2.5-4.3,2.5c-1.8,0-3.2-0.5-4.2-1.5s-1.5-2.4-1.5-4.2
			c0-2,0.7-3.6,2-4.7c1.4-1.2,3.2-1.8,5.6-1.8h2.4v-2.1c0-1.2-0.3-2-0.8-2.5s-1.3-0.7-2.4-0.7c-1,0-1.8,0.3-2.4,0.9
			s-0.9,1.3-0.9,2.2h-3.2c0-1,0.3-2,0.9-2.9c0.6-0.9,1.4-1.6,2.4-2.1s2.1-0.8,3.3-0.8c2,0,3.5,0.5,4.6,1.5c1,1,1.6,2.4,1.6,4.4v9.9
			c0,1.5,0.2,2.8,0.6,3.9v0.3H718.3z M714.1,208.2c0.8,0,1.5-0.2,2.2-0.7c0.7-0.4,1.2-1,1.6-1.6v-4.7h-1.8c-1.5,0-2.7,0.4-3.6,1
			c-0.9,0.7-1.3,1.6-1.3,2.8c0,1.1,0.2,1.9,0.7,2.4C712.3,207.9,713,208.2,714.1,208.2z"/>
		<path class="st2" d="M729.5,210.7h-3.2v-27.8h3.2V210.7z"/>
		<path class="st2" d="M741.5,211.1c-2.4,0-4.3-0.7-5.6-2.2c-1.3-1.5-2-3.6-2-6.4v-2.4c0-2.9,0.6-5.2,1.9-6.9c1.3-1.7,3-2.5,5.3-2.5
			c2.3,0,4,0.7,5.1,2.2c1.1,1.5,1.7,3.7,1.7,6.8v2.1h-10.9v0.5c0,2.1,0.4,3.6,1.2,4.6c0.8,1,1.9,1.4,3.4,1.4c0.9,0,1.8-0.2,2.5-0.5
			s1.4-0.9,2-1.7l1.7,2C746.5,210.1,744.4,211.1,741.5,211.1z M741.2,193.5c-1.3,0-2.3,0.5-3,1.4s-1,2.3-1.1,4.2h7.7v-0.4
			c-0.1-1.9-0.4-3.2-1-4C743.2,193.9,742.3,193.5,741.2,193.5z"/>
		<path class="st2" d="M761.4,205.7c0-0.7-0.3-1.3-0.8-1.8c-0.5-0.5-1.5-1.1-3-1.7c-1.7-0.7-2.9-1.3-3.6-1.8s-1.2-1.1-1.6-1.7
			c-0.3-0.6-0.5-1.4-0.5-2.3c0-1.6,0.6-2.9,1.7-4c1.2-1.1,2.7-1.6,4.5-1.6c1.9,0,3.4,0.6,4.6,1.7s1.7,2.5,1.7,4.3h-3.2
			c0-0.9-0.3-1.6-0.9-2.3c-0.6-0.6-1.3-0.9-2.3-0.9c-0.9,0-1.7,0.2-2.2,0.7c-0.5,0.5-0.8,1.1-0.8,2c0,0.7,0.2,1.2,0.6,1.6
			c0.4,0.4,1.3,0.9,2.8,1.6c2.4,0.9,4,1.8,4.9,2.7c0.9,0.9,1.3,2,1.3,3.4c0,1.7-0.6,3.1-1.8,4.1c-1.2,1-2.7,1.5-4.7,1.5
			c-2,0-3.7-0.6-5-1.8c-1.3-1.2-1.9-2.7-1.9-4.5h3.2c0,1.1,0.4,1.9,1,2.6c0.6,0.6,1.5,0.9,2.6,0.9c1.1,0,1.9-0.2,2.4-0.7
			C761.1,207.2,761.4,206.5,761.4,205.7z"/>
		<path class="st2" d="M769,209c0-0.6,0.2-1.1,0.5-1.4c0.3-0.4,0.9-0.6,1.5-0.6c0.7,0,1.2,0.2,1.6,0.6c0.4,0.4,0.5,0.9,0.5,1.4
			c0,0.6-0.2,1-0.5,1.4c-0.4,0.4-0.9,0.6-1.6,0.6c-0.7,0-1.2-0.2-1.5-0.6C769.1,210,769,209.5,769,209z"/>
	</g>
	<g>
		<path class="st2" d="M523.2,241.8c0-1.3-0.4-2.3-1.1-3c-0.7-0.7-2-1.4-3.9-2c-1.9-0.7-3.3-1.4-4.3-2.1c-1-0.7-1.7-1.6-2.2-2.5
			c-0.5-0.9-0.7-2-0.7-3.2c0-2.1,0.7-3.8,2.1-5.2c1.4-1.4,3.2-2,5.5-2c1.5,0,2.9,0.3,4.1,1s2.1,1.6,2.8,2.9c0.7,1.2,1,2.6,1,4.1
			h-3.3c0-1.6-0.4-2.9-1.2-3.8c-0.8-0.9-1.9-1.3-3.4-1.3c-1.3,0-2.4,0.4-3.1,1.1c-0.7,0.8-1.1,1.8-1.1,3.2c0,1.1,0.4,2,1.2,2.8
			s2,1.4,3.7,2c2.6,0.9,4.4,1.9,5.6,3.2c1.1,1.3,1.7,2.9,1.7,4.9c0,2.1-0.7,3.8-2.1,5.1s-3.3,1.9-5.7,1.9c-1.5,0-2.9-0.3-4.2-1
			c-1.3-0.7-2.3-1.6-3.1-2.8s-1.1-2.6-1.1-4.2h3.3c0,1.6,0.5,2.9,1.4,3.8s2.2,1.4,3.7,1.4c1.5,0,2.6-0.4,3.3-1.1
			S523.2,243.1,523.2,241.8z"/>
		<path class="st2" d="M537.5,248.8c-2.4,0-4.3-0.7-5.6-2.2c-1.3-1.5-2-3.6-2-6.4v-2.4c0-2.9,0.6-5.2,1.9-6.9c1.3-1.7,3-2.5,5.3-2.5
			c2.3,0,4,0.7,5.1,2.2c1.1,1.5,1.7,3.7,1.7,6.8v2.1h-10.9v0.5c0,2.1,0.4,3.6,1.2,4.6c0.8,1,1.9,1.4,3.4,1.4c0.9,0,1.8-0.2,2.5-0.5
			c0.7-0.4,1.4-0.9,2-1.7l1.7,2C542.5,247.9,540.3,248.8,537.5,248.8z M537.1,231.3c-1.3,0-2.3,0.5-3,1.4c-0.6,0.9-1,2.3-1.1,4.2
			h7.7v-0.4c-0.1-1.9-0.4-3.2-1-4C539.2,231.7,538.3,231.3,537.1,231.3z"/>
		<path class="st2" d="M547.2,237.8c0-3,0.6-5.3,1.7-6.9s2.7-2.4,4.9-2.4c1.9,0,3.3,0.8,4.4,2.3v-10.1h3.2v27.8h-2.9l-0.2-2.1
			c-1,1.6-2.6,2.5-4.5,2.5c-2,0-3.6-0.8-4.8-2.4c-1.2-1.6-1.7-3.8-1.8-6.7V237.8z M550.4,239.6c0,2.2,0.3,3.8,1,4.8
			c0.7,1,1.7,1.5,3.2,1.5c1.6,0,2.8-0.8,3.6-2.4v-9.9c-0.8-1.6-2-2.3-3.5-2.3c-1.5,0-2.5,0.5-3.2,1.5c-0.7,1-1,2.6-1,4.7V239.6z"/>
		<path class="st2" d="M573.2,248.8c-2.4,0-4.3-0.7-5.6-2.2c-1.3-1.5-2-3.6-2-6.4v-2.4c0-2.9,0.6-5.2,1.9-6.9c1.3-1.7,3-2.5,5.3-2.5
			c2.3,0,4,0.7,5.1,2.2c1.1,1.5,1.7,3.7,1.7,6.8v2.1h-10.9v0.5c0,2.1,0.4,3.6,1.2,4.6c0.8,1,1.9,1.4,3.4,1.4c0.9,0,1.8-0.2,2.5-0.5
			c0.7-0.4,1.4-0.9,2-1.7l1.7,2C578.2,247.9,576.1,248.8,573.2,248.8z M572.9,231.3c-1.3,0-2.3,0.5-3,1.4c-0.6,0.9-1,2.3-1.1,4.2
			h7.7v-0.4c-0.1-1.9-0.4-3.2-1-4C575,231.7,574.1,231.3,572.9,231.3z"/>
		<path class="st2" d="M604.8,241.6h-8.9l-2,6.9h-3.4l8.5-26.4h2.8l8.5,26.4h-3.4L604.8,241.6z M596.8,238.7h7.2l-3.6-12
			L596.8,238.7z"/>
		<path class="st2" d="M621.5,231.9c-0.4-0.1-0.9-0.1-1.4-0.1c-1.6,0-2.8,0.9-3.4,2.7v14h-3.2v-19.6h3.1l0.1,2
			c0.9-1.6,2.1-2.4,3.6-2.4c0.5,0,0.9,0.1,1.3,0.3L621.5,231.9z"/>
		<path class="st2" d="M623.8,237.8c0-3.1,0.6-5.4,1.7-6.9s2.7-2.3,4.9-2.3c2,0,3.5,0.8,4.5,2.6l0.2-2.2h2.9v19.8
			c0,2.4-0.6,4.3-1.9,5.6s-3,1.9-5.2,1.9c-1,0-2-0.2-3.2-0.7c-1.2-0.5-2.1-1.1-2.7-1.8l1.3-2.2c1.3,1.3,2.8,2,4.4,2
			c2.7,0,4-1.5,4.1-4.4v-2.6c-1,1.5-2.5,2.3-4.4,2.3c-2,0-3.6-0.8-4.7-2.3c-1.1-1.5-1.7-3.7-1.8-6.6V237.8z M627,239.6
			c0,2.2,0.3,3.8,1,4.8c0.6,1,1.7,1.5,3.2,1.5c1.6,0,2.8-0.8,3.6-2.4v-9.8c-0.8-1.6-2-2.4-3.5-2.4c-1.5,0-2.5,0.5-3.2,1.5
			c-0.7,1-1,2.6-1,4.7V239.6z"/>
		<path class="st2" d="M649.7,248.8c-2.4,0-4.3-0.7-5.6-2.2c-1.3-1.5-2-3.6-2-6.4v-2.4c0-2.9,0.6-5.2,1.9-6.9c1.3-1.7,3-2.5,5.3-2.5
			c2.3,0,4,0.7,5.1,2.2c1.1,1.5,1.7,3.7,1.7,6.8v2.1h-10.9v0.5c0,2.1,0.4,3.6,1.2,4.6c0.8,1,1.9,1.4,3.4,1.4c0.9,0,1.8-0.2,2.5-0.5
			c0.7-0.4,1.4-0.9,2-1.7l1.7,2C654.6,247.9,652.5,248.8,649.7,248.8z M649.3,231.3c-1.3,0-2.3,0.5-3,1.4c-0.6,0.9-1,2.3-1.1,4.2
			h7.7v-0.4c-0.1-1.9-0.4-3.2-1-4C651.4,231.7,650.5,231.3,649.3,231.3z"/>
		<path class="st2" d="M663,228.9l0.1,2.1c1.2-1.7,2.8-2.5,4.8-2.5c3.5,0,5.2,2.3,5.3,6.9v13H670v-12.9c0-1.5-0.3-2.6-0.8-3.3
			s-1.3-1-2.3-1c-0.8,0-1.5,0.3-2.1,0.8c-0.6,0.5-1.1,1.2-1.5,2.1v14.2H660v-19.6H663z"/>
		<path class="st2" d="M682.2,224.1v4.7h3v2.6h-3v12.2c0,0.8,0.1,1.4,0.4,1.8c0.3,0.4,0.7,0.6,1.3,0.6c0.4,0,0.9-0.1,1.3-0.2l0,2.7
			c-0.7,0.2-1.5,0.4-2.2,0.4c-1.3,0-2.2-0.5-2.9-1.4c-0.7-0.9-1-2.2-1-3.8v-12.2h-3v-2.6h3v-4.7H682.2z"/>
		<path class="st2" d="M692.6,223.7c0,0.5-0.2,1-0.5,1.4c-0.3,0.4-0.8,0.5-1.4,0.5c-0.6,0-1.1-0.2-1.4-0.5c-0.3-0.4-0.5-0.8-0.5-1.4
			s0.2-1,0.5-1.4c0.3-0.4,0.8-0.6,1.4-0.6c0.6,0,1.1,0.2,1.4,0.6S692.6,223.2,692.6,223.7z M692.4,248.5h-3.2v-19.6h3.2V248.5z"/>
		<path class="st2" d="M700.4,228.9l0.1,2.1c1.2-1.7,2.8-2.5,4.8-2.5c3.5,0,5.2,2.3,5.3,6.9v13h-3.2v-12.9c0-1.5-0.3-2.6-0.8-3.3
			c-0.5-0.6-1.3-1-2.3-1c-0.8,0-1.5,0.3-2.1,0.8c-0.6,0.5-1.1,1.2-1.5,2.1v14.2h-3.2v-19.6H700.4z"/>
		<path class="st2" d="M725.4,248.5c-0.2-0.4-0.3-1.1-0.4-2.1c-1.1,1.7-2.6,2.5-4.3,2.5c-1.8,0-3.2-0.5-4.2-1.5
			c-1-1-1.5-2.4-1.5-4.2c0-2,0.7-3.6,2-4.7c1.4-1.2,3.2-1.8,5.6-1.8h2.4v-2.1c0-1.2-0.3-2-0.8-2.5c-0.5-0.5-1.3-0.7-2.4-0.7
			c-1,0-1.8,0.3-2.4,0.9c-0.6,0.6-0.9,1.3-0.9,2.2h-3.2c0-1,0.3-2,0.9-2.9c0.6-0.9,1.4-1.6,2.4-2.1c1-0.5,2.1-0.8,3.3-0.8
			c2,0,3.5,0.5,4.6,1.5c1,1,1.6,2.4,1.6,4.4v9.9c0,1.5,0.2,2.8,0.6,3.9v0.3H725.4z M721.1,245.9c0.8,0,1.5-0.2,2.2-0.7
			c0.7-0.4,1.2-1,1.6-1.6V239h-1.8c-1.5,0-2.7,0.4-3.6,1c-0.9,0.7-1.3,1.6-1.3,2.8c0,1.1,0.2,1.9,0.7,2.4
			C719.3,245.7,720.1,245.9,721.1,245.9z"/>
		<path class="st2" d="M733.3,246.7c0-0.6,0.2-1.1,0.5-1.4c0.3-0.4,0.9-0.6,1.5-0.6c0.7,0,1.2,0.2,1.6,0.6c0.4,0.4,0.5,0.9,0.5,1.4
			c0,0.6-0.2,1-0.5,1.4c-0.4,0.4-0.9,0.6-1.6,0.6c-0.7,0-1.2-0.2-1.5-0.6S733.3,247.3,733.3,246.7z"/>
	</g>
	<g>
		<path class="st2" d="M519.7,318.9l4.5-19.3h6l-7.7,26.7h-5.6l-7.6-26.7h6L519.7,318.9z"/>
		<path class="st2" d="M532.5,301.3c0-0.8,0.3-1.5,0.8-2c0.5-0.5,1.2-0.8,2.1-0.8c0.9,0,1.5,0.3,2.1,0.8c0.5,0.5,0.8,1.2,0.8,2
			c0,0.8-0.3,1.5-0.8,2c-0.5,0.5-1.2,0.8-2.1,0.8c-0.9,0-1.6-0.3-2.1-0.8S532.5,302.1,532.5,301.3z M537.9,326.2h-5.2v-19.8h5.2
			V326.2z"/>
		<path class="st2" d="M551.7,311.4l-1.7-0.1c-1.4,0-2.4,0.6-2.9,1.9v13.1h-5.2v-19.8h4.9l0.1,2.1c0.8-1.7,1.9-2.5,3.4-2.5
			c0.6,0,1.1,0.1,1.4,0.2L551.7,311.4z"/>
		<path class="st2" d="M561.3,301.5v4.9h2.7v3.9h-2.7v9.8c0,0.8,0.1,1.3,0.3,1.6c0.2,0.3,0.6,0.4,1.2,0.4c0.5,0,0.9,0,1.2-0.1l0,4
			c-0.9,0.3-1.8,0.5-2.9,0.5c-3.3,0-5-1.9-5.1-5.8v-10.5h-2.3v-3.9h2.3v-4.9H561.3z"/>
		<path class="st2" d="M576.5,324.4c-1.1,1.5-2.5,2.2-4.3,2.2c-1.8,0-3.2-0.6-4.1-1.9c-0.9-1.3-1.4-3.1-1.4-5.5v-12.8h5.2v13
			c0,1.9,0.7,2.9,1.9,2.9c1.2,0,2-0.5,2.6-1.5v-14.3h5.2v19.8h-4.9L576.5,324.4z"/>
		<path class="st2" d="M594.6,326.2c-0.1-0.3-0.3-0.8-0.4-1.5c-0.9,1.3-2.2,1.9-3.8,1.9c-1.7,0-3-0.5-4.1-1.6s-1.6-2.5-1.6-4.3
			c0-2.1,0.7-3.7,2-4.8s3.2-1.7,5.7-1.7h1.6v-1.6c0-0.9-0.2-1.5-0.5-1.9c-0.3-0.4-0.8-0.5-1.3-0.5c-1.3,0-1.9,0.8-1.9,2.3H585
			c0-1.8,0.7-3.3,2.1-4.5c1.4-1.2,3.1-1.8,5.2-1.8c2.2,0,3.9,0.6,5,1.7c1.2,1.1,1.8,2.7,1.8,4.8v9.3c0,1.7,0.3,3,0.7,4v0.3H594.6z
			 M591.6,322.5c0.6,0,1.1-0.1,1.5-0.3c0.4-0.2,0.7-0.5,0.9-0.8v-4.1h-1.2c-0.9,0-1.6,0.3-2.1,0.8s-0.8,1.3-0.8,2.3
			C589.8,321.8,590.4,322.5,591.6,322.5z"/>
		<path class="st2" d="M608.3,326.2h-5.2v-28.1h5.2V326.2z"/>
		<path class="st2" d="M612.7,323.6c0-0.8,0.3-1.5,0.8-2.1c0.6-0.5,1.3-0.8,2.2-0.8c0.9,0,1.6,0.3,2.2,0.8c0.6,0.5,0.9,1.2,0.9,2.1
			c0,0.9-0.3,1.5-0.9,2.1c-0.6,0.5-1.3,0.8-2.2,0.8c-0.9,0-1.6-0.3-2.2-0.8C613,325.1,612.7,324.4,612.7,323.6z"/>
	</g>
</g>
</svg>
