<?xml version="1.0" encoding="utf-8"?>
<!-- Generator: Adobe Illustrator 23.0.6, SVG Export Plug-In . SVG Version: 6.00 Build 0)  -->
<svg version="1.1" id="Capa_1" xmlns="http://www.w3.org/2000/svg" xmlns:xlink="http://www.w3.org/1999/xlink" x="0px" y="0px"
	 viewBox="0 0 100 100" style="enable-background:new 0 0 100 100;" xml:space="preserve">
<style type="text/css">
	.st0{fill:#DC522A;}
	.st1{fill:#EC1858;}
</style>
<g>
	<g>
		<path class="st0" d="M36.3-96.2c-6.3-1.9-8.4-6.3-8.3-12.4c0.2-9.1,0-18.2,0.1-27.2c0-7.5,4.1-11.5,11.5-11.5
			c16.2,0,32.4,0,48.6,0c7.3,0,11.4,4.1,11.4,11.4c0,9.6,0,19.1,0,28.7c0,7-4.1,11.2-11.1,11.2C77.9-96,67.3-96,56.8-96
			c-1.8,0-3.1,0.5-4.3,1.8c-3,3.2-6.1,6.2-9.1,9.3c-1.3,1.3-2.7,2.1-4.6,1.4c-1.9-0.8-2.6-2.3-2.5-4.3
			C36.3-90.6,36.3-93.3,36.3-96.2z M57-128.7c1.5,0.3,3-0.1,4.1-2.1c0.5-0.8,2.5-1.4,3.6-1.2c1,0.2,2.2,1.5,2.5,2.5
			c0.9,2.7-0.5,4.8-2.6,6.6c-1.5,1.2-3,2.3-4.1,3.8c-0.7,0.9-0.9,2.5-0.8,3.6c0,0.4,2,0.6,3,0.7c0.8,0.1,1.7,0.2,2.4,0
			c0.6-0.2,1.4-0.7,1.5-1.2c0.4-2.2,2-3.3,3.6-4.4c3.8-2.5,5.2-6.1,4.2-10.4c-0.8-3.7-4.1-6.5-8.3-6.9c-4.7-0.4-9.3-0.3-12.2,4.3
			C52.1-130,52.8-128.8,57-128.7z M63.1-111.6c-3.5,0-3.7,0.2-3.7,2.9c0,2.7,0.3,2.9,3.7,2.9c0.4,0,0.8,0,1.2,0
			c1.6,0.1,2.3-0.6,2.4-2.3C66.8-111.2,66.5-111.6,63.1-111.6z"/>
		<path class="st0" d="M58.4-88.9c0,1.1,0,2.3,0,3.4c0,3.9,0.9,4.8,4.7,4.8c11.5,0,22.9,0,34.4,0.1c1.2,0,2.7,0.7,3.6,1.5
			c2.1,1.8,3.9,4,6.4,5.8c0-2.4,0-4.7,0-7.3c1.9,0,3.5,0.1,5,0c2.1-0.1,3.4-1.2,3.4-3.4c0-10.1,0-20.3,0-30.4c0-2.3-1.1-3.4-3.5-3.4
			c-1.8-0.1-3.6,0-5.6,0c0-2.4,0-3.6,0-6.5c3.6,0,6.5,0,9.5,0.1c4.7,0.3,6.7,5.1,6.7,9.8c0.1,10.1,0.1,20.1,0,30.2
			c0,4.8-2.4,8.2-6.8,10.1c-0.6,0.3-1.2,1.2-1.3,1.9c-0.2,2.4-0.1,4.7-0.1,7.1c0,1.8-0.7,3.2-2.3,3.9c-1.7,0.8-3.2,0.2-4.5-1
			c-3.3-3.3-6.5-6.7-9.9-9.8c-0.9-0.8-2.4-1.5-3.6-1.5c-10.9-0.1-21.8,0-32.6-0.1c-5,0-9-3-10.1-7.7c-0.2-0.9,0.2-2.3,0.8-3
			c1.5-1.8,3.4-3.4,5.1-5C57.8-89.2,58.1-89,58.4-88.9z"/>
	</g>
</g>
<g>
	<g>
		<g>
			<path class="st1" d="M50.3,14.4c13.1,0,26.2,0,39.3,0c5,0,8.2,4.2,8.2,8.1c-0.1,19.2-0.1,38.3,0,57.5c0,4.3-3.3,8.3-8.4,8.3
				c-26.2-0.1-52.4,0-78.6,0c-4.5,0-8-3.4-8-7.9c0-19.4,0-38.7,0-58.1c0-4.5,3.4-7.9,8-7.9C24,14.3,37.2,14.4,50.3,14.4
				C50.3,14.4,50.3,14.4,50.3,14.4z M31.9,72.4c4.8,0,9.6,0,14.4,0c2.7,0,4-1.3,4-4c0-0.5,0-1,0-1.4c0.2-3.8-1.4-6.6-4.5-8.6
				C43.1,56.7,40.1,56,37,57c-3.3,1-6.6,1-10,0.1c-0.7-0.2-1.3-0.5-2-0.5c-2.2-0.1-4.4,0.3-6.3,1.3c-2.6,1.4-4.6,3.5-5.1,6.5
				c-0.3,1.6-0.2,3.3-0.2,5c0,1.1,0.6,1.9,1.6,2.4c0.8,0.4,1.7,0.6,2.6,0.6C22.3,72.5,27.1,72.4,31.9,72.4z M31.8,51.3
				c5.9,0,10.6-4.7,10.6-10.7c0-5.7-4.8-10.4-10.6-10.4c-5.8,0-10.6,4.8-10.6,10.5C21.3,46.6,26,51.3,31.8,51.3z M74.1,35.4
				c-3.8,0-7.5,0-11.3,0c-1.6,0-2,0.4-2,2c0,0.4,0,0.8,0,1.2c0,1.9,0.3,2.2,2.2,2.2c7.3,0,14.7,0,22,0c0.2,0,0.5,0,0.7,0
				c1.1-0.1,1.5-0.5,1.6-1.6c0-0.6,0-1.2,0-1.8c0-1.5-0.5-1.9-2-1.9C81.6,35.4,77.9,35.4,74.1,35.4z M73.9,51.3c3.9,0,7.8,0,11.7,0
				c1.2,0,1.6-0.4,1.7-1.6c0-0.6,0-1.2,0-1.7c0-1.5-0.4-1.9-2-1.9c-7.3,0-14.7,0-22,0c-0.4,0-0.8,0-1.2,0c-0.8,0.1-1.2,0.5-1.3,1.3
				c0,0.7,0,1.5,0,2.2c0,1.4,0.3,1.7,1.8,1.8C66.4,51.3,70.2,51.3,73.9,51.3z M74,61.9c3.8,0,7.7,0,11.5,0c1.3,0,1.7-0.4,1.8-1.7
				c0-0.5,0-1,0-1.5c0-1.6-0.4-2-2-2c-5.8,0-11.5,0-17.3,0c-1.9,0-3.8,0-5.7,0c-1,0-1.5,0.4-1.5,1.5c0,0.7,0,1.4,0,2
				c0,1.4,0.4,1.8,1.8,1.8C66.4,61.9,70.2,61.9,74,61.9z"/>
		</g>
	</g>
</g>
</svg>
