<?xml version="1.0" encoding="UTF-8" standalone="no"?>
<svg
   xmlns:dc="http://purl.org/dc/elements/1.1/"
   xmlns:cc="http://creativecommons.org/ns#"
   xmlns:rdf="http://www.w3.org/1999/02/22-rdf-syntax-ns#"
   xmlns:svg="http://www.w3.org/2000/svg"
   xmlns="http://www.w3.org/2000/svg"
   xmlns:sodipodi="http://sodipodi.sourceforge.net/DTD/sodipodi-0.dtd"
   xmlns:inkscape="http://www.inkscape.org/namespaces/inkscape"
   aria-hidden="true"
   data-prefix="fab"
   data-icon="invision"
   class="svg-inline--fa fa-invision fa-w-14"
   role="img"
   viewBox="0 0 448 512"
   id="svg2"
   version="1.1"
   inkscape:version="0.91 r13725"
   sodipodi:docname="icon.svg">
  <metadata
     id="metadata10">
    <rdf:RDF>
      <cc:Work
         rdf:about="">
        <dc:format>image/svg+xml</dc:format>
        <dc:type
           rdf:resource="http://purl.org/dc/dcmitype/StillImage" />
        <dc:title></dc:title>
      </cc:Work>
    </rdf:RDF>
  </metadata>
  <defs
     id="defs8" />
  <sodipodi:namedview
     pagecolor="#ffffff"
     bordercolor="#666666"
     borderopacity="1"
     objecttolerance="10"
     gridtolerance="10"
     guidetolerance="10"
     inkscape:pageopacity="0"
     inkscape:pageshadow="2"
     inkscape:window-width="857"
     inkscape:window-height="480"
     id="namedview6"
     showgrid="false"
     inkscape:zoom="0.4609375"
     inkscape:cx="224"
     inkscape:cy="256"
     inkscape:window-x="75"
     inkscape:window-y="34"
     inkscape:window-maximized="0"
     inkscape:current-layer="svg2" />
  <path
     fill="currentColor"
     d="M407.4 32H40.6C18.2 32 0 50.2 0 72.6v366.8C0 461.8 18.2 480 40.6 480h366.8c22.4 0 40.6-18.2 40.6-40.6V72.6c0-22.4-18.2-40.6-40.6-40.6zM176.1 145.6c.4 23.4-22.4 27.3-26.6 27.4-14.9 0-27.1-12-27.1-27 .1-35.2 53.1-35.5 53.7-.4zM332.8 377c-65.6 0-34.1-74-25-106.6 14.1-46.4-45.2-59-59.9.7l-25.8 103.3H177l8.1-32.5c-31.5 51.8-94.6 44.4-94.6-4.3.1-14.3.9-14 23-104.1H81.7l9.7-35.6h76.4c-33.6 133.7-32.6 126.9-32.9 138.2 0 20.9 40.9 13.5 57.4-23.2l19.8-79.4h-32.3l9.7-35.6h68.8l-8.9 40.5c40.5-75.5 127.9-47.8 101.8 38-14.2 51.1-14.6 50.7-14.9 58.8 0 15.5 17.5 22.6 31.8-16.9L386 325c-10.5 36.7-29.4 52-53.2 52z"
     id="path4"
     style="fill:#dc522a;fill-opacity:1"
     inkscape:export-xdpi="52.73"
     inkscape:export-ydpi="52.73" />
</svg>
